<svg version="1.1" viewBox="0.0 0.0 960.0 540.0" fill="none" stroke="none" stroke-linecap="square" stroke-miterlimit="10" xmlns:xlink="http://www.w3.org/1999/xlink" xmlns="http://www.w3.org/2000/svg"><clipPath id="ga2c1b93a13_0_43.0"><path d="m0 0l960.0 0l0 540.0l-960.0 0l0 -540.0z" clip-rule="nonzero"/></clipPath><g clip-path="url(#ga2c1b93a13_0_43.0)"><path fill="#000000" fill-opacity="0.0" d="m0 0l960.0 0l0 540.0l-960.0 0z" fill-rule="evenodd"/><path fill="#000000" fill-opacity="0.0" d="m50.175854 179.30257l510.5827 0l0 142.70866l-510.5827 0z" fill-rule="evenodd"/><path fill="#5d6d37" d="m63.87898 230.90193q-2.015625 0 -2.015625 -1.109375l0.078125 -5.40625l0.09375 -5.421875q0 -2.9375 -0.125 -8.921875q-0.140625 -5.9375 -0.140625 -8.9375l0 -0.265625q0 -1.140625 0.21875 -2.109375q0.265625 -1.1875 1.40625 -1.1875q3.0781212 0 4.874996 1.984375q1.8125 1.96875 1.8125 5.234375q0 1.984375 -1.0625 4.140625q-1.046875 2.15625 -2.5 3.203125q2.5625 1.71875 3.765625 4.421875q1.203125 2.703125 1.203125 5.96875q0 1.53125 -1.046875 3.828125q-1.28125 2.71875 -3.484375 3.90625q-1.3125 0.671875 -2.890625 0.671875l-0.18749619 0zm0.4374962 -19.453125q1.15625 -0.265625 1.9375 -1.890625q0.671875 -1.234375 1.234375 -3.0q0.140625 -0.484375 0.4375 -1.234375l0 -1.53125q0 -1.328125 -0.96875 -2.546875q-0.96875 -1.234375 -2.1875 -1.234375q-0.625 0 -0.625 1.359375q0 2.90625 0.09375 5.1875l0.078125 4.890625zm0.1875 17.15625q2.15625 -0.3125 3.421875 -1.984375q1.28125 -1.671875 1.28125 -4.0q0 -2.015625 -0.328125 -3.703125q-0.328125 -1.703125 -0.859375 -2.59375q-0.484375 -0.828125 -0.96875 -1.390625q-0.484375 -0.578125 -0.828125 -0.765625l-0.359375 -0.125l-1.578125 0q0.21875 5.0625 0.21875 14.5625zm14.253479 2.46875q-0.4375 0 -0.78125 -0.3125q-0.328125 -0.3125 -0.328125 -0.75l0.09375 -4.265625q0.140625 -2.859375 0.140625 -4.265625q0 -1.28125 -0.40625 -3.78125q-0.4375 -2.46875 -0.4375 -3.828125q0 -1.671875 -0.484375 -3.828125q-0.484375 -2.15625 -1.234375 -4.140625q-0.703125 -1.890625 -1.1875 -4.0625q-0.484375 -2.1875 -0.484375 -3.8125q0 -0.3125 0.34375 -0.53125q0.359375 -0.21875 0.765625 -0.21875q0.484375 0 0.921875 1.015625q0.53125 1.140625 1.015625 3.21875q0.484375 2.0625 0.5625 2.453125l0.578125 3.03125l0.4375 1.9375q0.125 -0.703125 0.21875 -1.84375q0.265625 -3.65625 0.65625 -6.078125q0.3125 -1.671875 0.703125 -2.546875q0.4375 -0.96875 1.0625 -0.96875q1.1875 0 1.1875 0.4375q0 2.515625 -1.0625 7.390625q-1.046875 4.890625 -1.046875 7.4375l-0.09375 0.703125q-0.09375 0.671875 -0.046875 0.796875l0 0.703125q0 1.890625 0.140625 5.8125l0.078125 5.84375l0.09375 1.015625l0.09375 1.0625l0 1.09375q0 0.53125 -0.453125 0.90625q-0.4375 0.375 -1.046875 0.375zm19.08696 -1.234375l-0.03125 -1.71875q-0.046875 -0.75 -0.046875 -1.671875l0.046875 -1.5q-0.140625 -0.484375 -0.671875 -9.625q-0.515625 -9.15625 -0.609375 -11.75q-2.546875 -0.09375 -3.25 -0.53125q-0.484375 -0.359375 -0.484375 -0.796875q0 -0.34375 0.453125 -0.625q0.46875 -0.296875 0.953125 -0.296875q1.234375 0 2.984375 0.171875q1.671875 0.234375 3.0 0.234375l0.34375 0l0.359375 0q1.359375 0 1.359375 1.046875q0 0.53125 -0.4375 0.859375q-0.4375 0.328125 -1.015625 0.328125q-0.390625 0 -1.140625 -0.125l-0.875 -0.1875l-0.046875 0.234375l-0.046875 0.21875q0 3.90625 0.75 12.484375q0.703125 8.0625 0.703125 12.5q0 0.53125 -0.46875 0.9375q-0.453125 0.390625 -1.03125 0.390625l-0.796875 -0.578125zm16.545227 0.703125q-1.484375 0 -1.484375 -7.265625l0.03125 -2.5l0.046875 -2.03125l0 -0.125l0 -0.4375q0.046875 -0.359375 0.046875 -0.84375q0 -0.078125 -0.125 -0.21875q-0.140625 -0.125 -0.140625 -0.21875l0 -0.046875q-0.21875 0.09375 -0.78125 0.09375q-0.578125 0 -1.421875 -0.171875q-0.25 -0.046875 -1.40625 -0.21875l0 5.046875q0 1.15625 0.140625 3.609375q0.125 2.421875 0.125 3.609375q0 0.65625 -0.359375 1.140625q-0.34375 0.484375 -0.90625 0.484375q-0.84375 0 -1.203125 -1.625q-0.34375 -1.671875 -0.34375 -4.359375l0.09375 -3.5625q0.03125 -1.484375 0.03125 -3.15625l0 -0.75l0 -0.625q0 -0.703125 -0.03125 -0.921875l0 -0.21875l0.125 -2.546875q0 -1.671875 -0.125 -4.984375q-0.140625 -3.296875 -0.140625 -4.96875q0 -0.53125 0.34375 -0.921875q0.359375 -0.390625 0.890625 -0.390625q1.40625 0 1.40625 2.640625l-0.09375 5.453125q-0.078125 2.46875 -0.078125 5.5q0.65625 0.21875 2.375 0.21875l1.625 0q0.09375 -0.265625 0.09375 -0.53125q0 -2.109375 -0.265625 -6.25q-0.3125 -3.859375 -0.3125 -6.28125q0 -0.484375 0.375 -0.8125q0.375 -0.34375 0.90625 -0.34375q0.296875 0 0.875 0.234375l0.390625 0.171875q0 6.25 0.453125 16.671875l0.390625 11.140625q0 0.609375 -0.46875 0.96875q-0.453125 0.34375 -1.078125 0.34375zm8.845215 0.578125q-0.5625 0 -1.03125 -0.40625q-0.453125 -0.390625 -0.5 -0.96875l0 -1.140625l0 -0.875q-0.046875 -0.40625 -0.046875 -0.921875q0 -0.921875 -0.140625 -2.828125l-0.078125 -2.8125q0 -2.15625 0.125 -6.421875q0.1875 -3.828125 0.1875 -6.421875q0 -0.625 -0.140625 -1.84375q-0.125 -1.28125 -0.125 -1.859375q0 -3.125 1.84375 -3.125q1.453125 0 3.359375 0.578125q1.9218826 0.578125 1.9218826 1.359375q0 0.453125 -0.375 0.828125q-0.37500763 0.359375 -0.9062576 0.578125q-1.84375 -0.65625 -3.34375 -0.875q0.046875 0.65625 0.046875 1.890625q0 1.765625 -0.046875 3.171875q-0.125 2.109375 -0.125 3.171875l0.125 0.703125l0.703125 -0.046875q0.359375 -0.046875 0.890625 -0.046875q2.109375 0 2.109375 1.234375q0 0.484375 -0.40625 0.8125q-0.390625 0.328125 -1.0 0.328125q-0.796875 0 -1.234375 -0.078125l-1.109375 0q0.09375 1.140625 0.09375 3.34375q0 2.1875 -0.046875 3.953125q-0.125 2.6875 -0.125 4.0q0 2.46875 0.078125 2.46875l1.453125 -0.046875q0.75 -0.046875 1.8125 -0.046875q1.6718826 0 1.6718826 1.0625q0 0.609375 -0.5625 0.9375q-0.5468826 0.34375 -1.3281326 0.34375l-3.75 0zm19.501091 -0.265625q-0.578125 -2.34375 -0.578125 -6.46875l0.09375 -3.921875q0.078125 -1.765625 0.078125 -3.90625q-0.265625 -0.625 -0.265625 -1.109375l0 -0.125q0.453125 -0.84375 0.453125 -3.796875l0.03125 -2.015625q0.046875 -0.96875 0.046875 -2.15625q0 -2.59375 -0.34375 -4.09375q0.125 -0.609375 0.4375 -1.0625q0.3125 -0.46875 0.75 -0.46875l1.9375 0q1.234375 0 2.15625 0.546875q0.921875 0.546875 1.40625 1.5625q0.875 1.796875 0.875 4.265625q0 1.75 -0.046875 2.765625q-0.078125 1.28125 -0.4375 2.328125q-0.125 0.578125 -0.375 0.953125q-0.234375 0.375 -0.671875 0.90625q-0.625 0.75 -2.03125 1.40625q-0.578125 0.3125 -1.5 0.5625l0 4.71875l0.09375 2.8125l0.09375 1.359375q0.171875 2.46875 0.171875 4.1875q0 0.53125 -0.453125 0.90625q-0.4375 0.375 -1.0 0.375l-0.921875 -0.53125zm2.0625 -15.625q2.59375 -0.390625 2.59375 -7.4375q0 -1.28125 -0.125 -1.984375q-0.140625 -0.515625 -0.359375 -0.84375q-0.21875 -0.34375 -0.65625 -0.5625q-0.484375 -0.265625 -1.0625 -0.265625q0 -0.03125 -0.484375 -0.03125l0 2.5q0 2.59375 0.046875 4.625q0 2.28125 0.046875 2.984375l0 0.921875l0 0.09375zm11.348343 15.890625q-0.5625 0 -1.03125 -0.40625q-0.453125 -0.390625 -0.5 -0.96875l0 -1.140625l0 -0.875q-0.046875 -0.40625 -0.046875 -0.921875q0 -0.921875 -0.140625 -2.828125l-0.078125 -2.8125q0 -2.15625 0.125 -6.421875q0.1875 -3.828125 0.1875 -6.421875q0 -0.625 -0.140625 -1.84375q-0.125 -1.28125 -0.125 -1.859375q0 -3.125 1.84375 -3.125q1.453125 0 3.359375 0.578125q1.921875 0.578125 1.921875 1.359375q0 0.453125 -0.375 0.828125q-0.375 0.359375 -0.90625 0.578125q-1.84375 -0.65625 -3.34375 -0.875q0.046875 0.65625 0.046875 1.890625q0 1.765625 -0.046875 3.171875q-0.125 2.109375 -0.125 3.171875l0.125 0.703125l0.703125 -0.046875q0.359375 -0.046875 0.890625 -0.046875q2.109375 0 2.109375 1.234375q0 0.484375 -0.40625 0.8125q-0.390625 0.328125 -1.0 0.328125q-0.796875 0 -1.234375 -0.078125l-1.109375 0q0.09375 1.140625 0.09375 3.34375q0 2.1875 -0.046875 3.953125q-0.125 2.6875 -0.125 4.0q0 2.46875 0.078125 2.46875l1.453125 -0.046875q0.75 -0.046875 1.8125 -0.046875q1.671875 0 1.671875 1.0625q0 0.609375 -0.5625 0.9375q-0.546875 0.34375 -1.328125 0.34375l-3.75 0zm15.620972 0.265625q-1.140625 0 -2.109375 -0.734375q-0.96875 -0.71875 -1.578125 -1.953125q-1.28125 -2.6875 -1.59375 -5.859375q-0.390625 -2.984375 -0.390625 -5.765625q0 -0.515625 0.046875 -0.875l0 -0.796875q0 -0.21875 -0.046875 -0.21875l0 -0.78125l0.046875 -3.09375q0.046875 -1.40625 0.34375 -4.484375q0.21875 -2.109375 1.015625 -4.09375q0.3125 -0.875 0.796875 -1.328125q0.484375 -0.46875 1.09375 -0.46875q1.765625 0 3.171875 0.640625q1.40625 0.625 2.375 1.78125q0.875 1.09375 1.484375 2.703125q0.625 1.609375 0.890625 3.40625q0.265625 1.84375 0.265625 3.921875l0 0.34375q0 1.375 0.046875 2.46875l0.046875 2.5q0 12.6875 -5.90625 12.6875zm-0.171875 -1.859375q0.796875 0 1.453125 -0.625q0.65625 -0.640625 1.015625 -1.75q0.828125 -2.234375 1.0 -4.84375q0.234375 -2.234375 0.234375 -3.859375q0 -1.984375 -0.3125 -5.203125q-0.265625 -3.390625 -0.265625 -5.0625l0 -0.78125q-0.09375 -1.671875 -1.125 -2.90625q-1.03125 -1.234375 -2.53125 -1.234375q-1.5 0 -1.984375 1.71875q-0.4375 1.359375 -0.4375 3.515625q0 0.84375 0.046875 1.40625l0 1.1875l-0.09375 2.03125q-0.078125 0.921875 -0.078125 2.015625q0 2.375 0.125 4.71875q0.1875 3.296875 0.890625 6.421875q0.703125 3.25 2.0625 3.25zm11.839966 1.328125q-0.578125 -2.34375 -0.578125 -6.46875l0.09375 -3.921875q0.078125 -1.765625 0.078125 -3.90625q-0.265625 -0.625 -0.265625 -1.109375l0 -0.125q0.453125 -0.84375 0.453125 -3.796875l0.03125 -2.015625q0.046875 -0.96875 0.046875 -2.15625q0 -2.59375 -0.34375 -4.09375q0.125 -0.609375 0.4375 -1.0625q0.3125 -0.46875 0.75 -0.46875l1.9375 0q1.234375 0 2.15625 0.546875q0.921875 0.546875 1.40625 1.5625q0.875 1.796875 0.875 4.265625q0 1.75 -0.046875 2.765625q-0.078125 1.28125 -0.4375 2.328125q-0.125 0.578125 -0.375 0.953125q-0.234375 0.375 -0.671875 0.90625q-0.625 0.75 -2.03125 1.40625q-0.578125 0.3125 -1.5 0.5625l0 4.71875l0.09375 2.8125l0.09375 1.359375q0.171875 2.46875 0.171875 4.1875q0 0.53125 -0.453125 0.90625q-0.4375 0.375 -1.0 0.375l-0.921875 -0.53125zm2.0625 -15.625q2.59375 -0.390625 2.59375 -7.4375q0 -1.28125 -0.125 -1.984375q-0.140625 -0.515625 -0.359375 -0.84375q-0.21875 -0.34375 -0.65625 -0.5625q-0.484375 -0.265625 -1.0625 -0.265625q0 -0.03125 -0.484375 -0.03125l0 2.5q0 2.59375 0.046875 4.625q0 2.28125 0.046875 2.984375l0 0.921875l0 0.09375zm16.098343 16.015625q-1.578125 -0.53125 -3.90625 -0.53125q-0.703125 0.4375 -1.5 0.4375q-0.53125 0 -0.90625 -0.46875q-0.375 -0.453125 -0.375 -0.984375q0 -3.6875 0.3125 -9.84375q0.265625 -6.5625 0.265625 -9.8125l0 -0.3125q-0.265625 -2.765625 -0.265625 -4.140625q0 -4.171875 1.546875 -4.171875q0.4375 0 0.765625 0.328125q0.328125 0.328125 0.328125 0.765625q0 0.53125 -0.125 1.671875q-0.140625 1.109375 -0.140625 1.671875q0 2.953125 0.046875 5.328125q0.046875 2.328125 0.046875 5.28125q-0.21875 0.65625 -0.21875 1.84375l0 0.53125l-0.09375 3.46875q-0.09375 1.546875 -0.09375 3.53125q0 3.03125 1.453125 3.03125q0.09375 0 0.28125 -0.015625q0.203125 -0.03125 0.5625 -0.03125q0.390625 -0.046875 1.015625 -0.046875q2.375 0 2.375 1.328125q0 0.4375 -0.40625 0.734375q-0.390625 0.3125 -0.96875 0.40625zm7.041977 -0.125q-0.5625 0 -1.03125 -0.40625q-0.453125 -0.390625 -0.5 -0.96875l0 -1.140625l0 -0.875q-0.046875 -0.40625 -0.046875 -0.921875q0 -0.921875 -0.140625 -2.828125l-0.078125 -2.8125q0 -2.15625 0.125 -6.421875q0.1875 -3.828125 0.1875 -6.421875q0 -0.625 -0.140625 -1.84375q-0.125 -1.28125 -0.125 -1.859375q0 -3.125 1.84375 -3.125q1.453125 0 3.359375 0.578125q1.921875 0.578125 1.921875 1.359375q0 0.453125 -0.375 0.828125q-0.375 0.359375 -0.90625 0.578125q-1.84375 -0.65625 -3.34375 -0.875q0.046875 0.65625 0.046875 1.890625q0 1.765625 -0.046875 3.171875q-0.125 2.109375 -0.125 3.171875l0.125 0.703125l0.703125 -0.046875q0.359375 -0.046875 0.890625 -0.046875q2.109375 0 2.109375 1.234375q0 0.484375 -0.40625 0.8125q-0.390625 0.328125 -1.0 0.328125q-0.796875 0 -1.234375 -0.078125l-1.109375 0q0.09375 1.140625 0.09375 3.34375q0 2.1875 -0.046875 3.953125q-0.125 2.6875 -0.125 4.0q0 2.46875 0.078125 2.46875l1.453125 -0.046875q0.75 -0.046875 1.8125 -0.046875q1.671875 0 1.671875 1.0625q0 0.609375 -0.5625 0.9375q-0.546875 0.34375 -1.328125 0.34375l-3.75 0zm13.824097 0.125q-0.578125 0 -1.015625 -0.484375q-0.4375 -0.484375 -0.4375 -1.09375q0 -0.671875 0.484375 -1.1875q0.484375 -0.53125 1.140625 -0.53125q0.609375 0 1.09375 0.53125q0.484375 0.515625 0.484375 1.140625q0 0.703125 -0.5 1.15625q-0.5 0.46875 -1.25 0.46875z" fill-rule="nonzero"/><path fill="#5d6d37" d="m64.1446 283.58945q-1.2656212 0 -1.2656212 -2.8125q0 -5.109375 -0.46875 -16.328125q-0.46875 -11.218765 -0.859375 -11.843765q0 -1.21875 0.96875 -1.890625q0.359375 -0.21875 0.984375 -0.375q0.6406212 -0.15625 1.1718712 -0.15625q0.265625 -0.03125 1.09375 -0.03125q1.015625 0 1.453125 0.328125q0.4375 0.328125 0.4375 1.15625q0 0.484375 -0.359375 0.734375q-0.34375 0.234375 -0.859375 0.234375l-0.453125 -0.03125l-0.609375 0q-1.234375 0 -1.234375 0.484375q0 2.28125 0.3125 5.9687653q0.265625 3.09375 0.34375 5.859375q0.3125 -0.09375 1.171875 -0.28125q0.859375 -0.203125 1.296875 -0.203125q0.484375 0 0.828125 0.421875q0.359375 0.421875 0.359375 0.9375q0 0.625 -0.5625 0.890625q-0.09375 0.03125 -0.421875 0.1875q-0.328125 0.15625 -0.859375 0.203125q-0.390625 0.046875 -1.328125 0.125l-0.484375 0q0 2.640625 0.453125 7.171875q0.390625 4.765625 0.390625 7.171875l-0.046875 0.1875l-0.046875 0.078125q0.046875 0.1875 0.046875 0.578125q0 0.578125 -0.40625 0.90625q-0.390625 0.328125 -1.046875 0.328125zm14.519348 0.796875q-1.140625 0 -2.109375 -0.734375q-0.96875 -0.71875 -1.578125 -1.953125q-1.28125 -2.6875 -1.59375 -5.859375q-0.390625 -2.984375 -0.390625 -5.765625q0 -0.515625 0.046875 -0.875l0 -0.796875q0 -0.21875 -0.046875 -0.21875l0 -0.78125l0.046875 -3.09375q0.046875 -1.40625 0.34375 -4.484375q0.21875 -2.109375 1.015625 -4.0937653q0.3125 -0.875 0.796875 -1.328125q0.484375 -0.46875 1.09375 -0.46875q1.765625 0 3.171875 0.640625q1.40625 0.625 2.375 1.7812653q0.875 1.09375 1.484375 2.703125q0.625 1.609375 0.890625 3.40625q0.265625 1.84375 0.265625 3.921875l0 0.34375q0 1.375 0.046875 2.46875l0.046875 2.5q0 12.6875 -5.90625 12.6875zm-0.171875 -1.859375q0.796875 0 1.453125 -0.625q0.65625 -0.640625 1.015625 -1.75q0.828125 -2.234375 1.0 -4.84375q0.234375 -2.234375 0.234375 -3.859375q0 -1.984375 -0.3125 -5.203125q-0.265625 -3.390625 -0.265625 -5.0625l0 -0.78125q-0.09375 -1.671875 -1.125 -2.90625q-1.03125 -1.234375 -2.53125 -1.234375q-1.5 0 -1.984375 1.71875q-0.4375 1.359375 -0.4375 3.515625q0 0.84375 0.046875 1.40625l0 1.1875l-0.09375 2.03125q-0.078125 0.921875 -0.078125 2.015625q0 2.375 0.125 4.71875q0.1875 3.296875 0.890625 6.421875q0.703125 3.25 2.0625 3.25zm18.57434 1.765625q-0.96875 0 -1.765625 -2.109375q-0.921875 -2.296875 -1.359375 -4.71875l-0.3125 -1.484375q-1.28125 -6.296875 -1.625 -7.171875l-0.53125 0q0 1.265625 -0.046875 2.328125l0 2.421875q0 5.890625 0.84375 9.1875l-0.484375 1.1875l-1.234375 0l-0.578125 -0.65625l0.046875 -2.953125q0 -3.953125 -0.390625 -12.0q-0.359375 -8.578125 -0.359375 -12.015625q0 -2.1093903 1.453125 -2.1093903q2.375 0 3.890625 1.234375q1.515625 1.2187653 1.515625 3.4218903l0 3.078125q0 0.671875 -0.21875 1.53125q-0.21875 0.84375 -0.484375 1.375l-0.828125 1.59375l-0.703125 1.3125l0.21875 1.0625l0.609375 3.125q0.625 3.375 1.1875 5.5q0.578125 2.109375 1.40625 3.828125l0.265625 0.515625q0.453125 0.890625 0.453125 1.40625q0 0.453125 -0.265625 0.78125q-0.265625 0.328125 -0.703125 0.328125zm-5.421875 -17.640625q0.96875 -0.484375 1.640625 -2.65625q0.6875 -2.1875 0.6875 -4.03125q0 -1.40625 -0.34375 -2.640625q-0.21875 -0.703125 -0.734375 -1.078125q-0.5 -0.37501526 -1.25 -0.37501526l-0.078125 0.21876526l-0.09375 0.390625l0.09375 5.1875q0.078125 2.296875 0.078125 4.984375zm21.203842 16.1875l-0.03125 -1.71875q-0.046875 -0.75 -0.046875 -1.671875l0.046875 -1.5q-0.140625 -0.484375 -0.671875 -9.625q-0.515625 -9.15625 -0.609375 -11.75q-2.546875 -0.09375 -3.25 -0.53125q-0.484375 -0.35939026 -0.484375 -0.79689026q0 -0.34375 0.453125 -0.625q0.46875 -0.296875 0.953125 -0.296875q1.234375 0 2.984375 0.171875q1.671875 0.234375 3.0 0.234375l0.34375 0l0.359375 0q1.359375 0 1.359375 1.046875q0 0.53126526 -0.4375 0.85939026q-0.4375 0.328125 -1.015625 0.328125q-0.390625 0 -1.140625 -0.125l-0.875 -0.1875l-0.046875 0.234375l-0.046875 0.21875q0 3.90625 0.75 12.484375q0.703125 8.0625 0.703125 12.5q0 0.53125 -0.46875 0.9375q-0.453125 0.390625 -1.03125 0.390625l-0.796875 -0.578125zm16.545235 0.703125q-1.4843826 0 -1.4843826 -7.265625l0.03125 -2.5l0.046875 -2.03125l0 -0.125l0 -0.4375q0.04688263 -0.359375 0.04688263 -0.84375q0 -0.078125 -0.12500763 -0.21875q-0.140625 -0.125 -0.140625 -0.21875l0 -0.046875q-0.21875 0.09375 -0.78125 0.09375q-0.578125 0 -1.421875 -0.171875q-0.25 -0.046875 -1.40625 -0.21875l0 5.046875q0 1.15625 0.140625 3.609375q0.125 2.421875 0.125 3.609375q0 0.65625 -0.359375 1.140625q-0.34375 0.484375 -0.90625 0.484375q-0.84375 0 -1.203125 -1.625q-0.34375 -1.671875 -0.34375 -4.359375l0.09375 -3.5625q0.03125 -1.484375 0.03125 -3.15625l0 -0.75l0 -0.625q0 -0.703125 -0.03125 -0.921875l0 -0.21875l0.125 -2.546875q0 -1.671875 -0.125 -4.984375q-0.140625 -3.296875 -0.140625 -4.9687653q0 -0.53125 0.34375 -0.921875q0.359375 -0.390625 0.890625 -0.390625q1.40625 0 1.40625 2.6406403l-0.09375 5.453125q-0.078125 2.46875 -0.078125 5.5q0.65625 0.21875 2.375 0.21875l1.6250076 0q0.09375 -0.265625 0.09375 -0.53125q0 -2.109375 -0.26563263 -6.25q-0.3125 -3.859375 -0.3125 -6.2812653q0 -0.484375 0.375 -0.8125q0.37500763 -0.34375 0.9062576 -0.34375q0.296875 0 0.875 0.234375l0.390625 0.171875q0 6.2500153 0.453125 16.67189l0.390625 11.140625q0 0.609375 -0.46875 0.96875q-0.453125 0.34375 -1.078125 0.34375zm8.845215 0.578125q-0.5625 0 -1.03125 -0.40625q-0.453125 -0.390625 -0.5 -0.96875l0 -1.140625l0 -0.875q-0.046875 -0.40625 -0.046875 -0.921875q0 -0.921875 -0.140625 -2.828125l-0.078125 -2.8125q0 -2.15625 0.125 -6.421875q0.1875 -3.828125 0.1875 -6.421875q0 -0.625 -0.140625 -1.84375q-0.125 -1.28125 -0.125 -1.859375q0 -3.1250153 1.84375 -3.1250153q1.453125 0 3.359375 0.578125q1.921875 0.578125 1.921875 1.3593903q0 0.453125 -0.375 0.828125q-0.375 0.359375 -0.90625 0.578125q-1.84375 -0.65625 -3.34375 -0.875q0.046875 0.65625 0.046875 1.890625q0 1.765625 -0.046875 3.171875q-0.125 2.109375 -0.125 3.171875l0.125 0.703125l0.703125 -0.046875q0.359375 -0.046875 0.890625 -0.046875q2.109375 0 2.109375 1.234375q0 0.484375 -0.40625 0.8125q-0.390625 0.328125 -1.0 0.328125q-0.796875 0 -1.234375 -0.078125l-1.109375 0q0.09375 1.140625 0.09375 3.34375q0 2.1875 -0.046875 3.953125q-0.125 2.6875 -0.125 4.0q0 2.46875 0.078125 2.46875l1.453125 -0.046875q0.75 -0.046875 1.8125 -0.046875q1.671875 0 1.671875 1.0625q0 0.609375 -0.5625 0.9375q-0.546875 0.34375 -1.328125 0.34375l-3.75 0zm19.985458 -0.359375q-0.484375 0 -0.78125 -0.40625q-0.28125 -0.421875 -0.28125 -1.046875l0.09375 -7.390625q0.125 -5.359375 0.125 -8.3125q0 -10.25 -1.140625 -15.70314q0.65625 -1.015625 1.671875 -1.015625q1.625 0 2.96875 0.734375q1.34375 0.71875 2.21875 1.953125q1.71875 2.546875 1.71875 5.7187653q0 3.296875 -1.40625 5.890625q-1.40625 2.59375 -4.09375 4.046875l0.09375 4.4375l0.078125 2.34375q0.046875 0.75 0.046875 2.15625q0.140625 2.9375 0.140625 4.796875q0 0.828125 -0.359375 1.3125q-0.34375 0.484375 -1.09375 0.484375zm1.0 -17.640625q1.71875 -1.625 2.53125 -3.40625q0.8125 -1.78125 0.8125 -4.03125l0 -0.046875q0 -1.015625 -0.21875 -2.546875q-0.125 -0.53126526 -0.484375 -1.0625153q-0.34375 -0.53125 -0.390625 -0.609375q-0.3125 -0.4375 -1.625 -1.359375l-1.140625 -0.84375q0 2.25 0.265625 6.9531403l0.25 6.953125zm12.234482 18.0q-0.5625 0 -1.03125 -0.40625q-0.453125 -0.390625 -0.5 -0.96875l0 -1.140625l0 -0.875q-0.046875 -0.40625 -0.046875 -0.921875q0 -0.921875 -0.140625 -2.828125l-0.078125 -2.8125q0 -2.15625 0.125 -6.421875q0.1875 -3.828125 0.1875 -6.421875q0 -0.625 -0.140625 -1.84375q-0.125 -1.28125 -0.125 -1.859375q0 -3.1250153 1.84375 -3.1250153q1.453125 0 3.359375 0.578125q1.921875 0.578125 1.921875 1.3593903q0 0.453125 -0.375 0.828125q-0.375 0.359375 -0.90625 0.578125q-1.84375 -0.65625 -3.34375 -0.875q0.046875 0.65625 0.046875 1.890625q0 1.765625 -0.046875 3.171875q-0.125 2.109375 -0.125 3.171875l0.125 0.703125l0.703125 -0.046875q0.359375 -0.046875 0.890625 -0.046875q2.109375 0 2.109375 1.234375q0 0.484375 -0.40625 0.8125q-0.390625 0.328125 -1.0 0.328125q-0.796875 0 -1.234375 -0.078125l-1.109375 0q0.09375 1.140625 0.09375 3.34375q0 2.1875 -0.046875 3.953125q-0.125 2.6875 -0.125 4.0q0 2.46875 0.078125 2.46875l1.453125 -0.046875q0.75 -0.046875 1.8125 -0.046875q1.671875 0 1.671875 1.0625q0 0.609375 -0.5625 0.9375q-0.546875 0.34375 -1.328125 0.34375l-3.75 0zm15.620972 0.265625q-1.140625 0 -2.109375 -0.734375q-0.96875 -0.71875 -1.578125 -1.953125q-1.28125 -2.6875 -1.59375 -5.859375q-0.390625 -2.984375 -0.390625 -5.765625q0 -0.515625 0.046875 -0.875l0 -0.796875q0 -0.21875 -0.046875 -0.21875l0 -0.78125l0.046875 -3.09375q0.046875 -1.40625 0.34375 -4.484375q0.21875 -2.109375 1.015625 -4.0937653q0.3125 -0.875 0.796875 -1.328125q0.484375 -0.46875 1.09375 -0.46875q1.765625 0 3.171875 0.640625q1.40625 0.625 2.375 1.7812653q0.875 1.09375 1.484375 2.703125q0.625 1.609375 0.890625 3.40625q0.265625 1.84375 0.265625 3.921875l0 0.34375q0 1.375 0.046875 2.46875l0.046875 2.5q0 12.6875 -5.90625 12.6875zm-0.171875 -1.859375q0.796875 0 1.453125 -0.625q0.65625 -0.640625 1.015625 -1.75q0.828125 -2.234375 1.0 -4.84375q0.234375 -2.234375 0.234375 -3.859375q0 -1.984375 -0.3125 -5.203125q-0.265625 -3.390625 -0.265625 -5.0625l0 -0.78125q-0.09375 -1.671875 -1.125 -2.90625q-1.03125 -1.234375 -2.53125 -1.234375q-1.5 0 -1.984375 1.71875q-0.4375 1.359375 -0.4375 3.515625q0 0.84375 0.046875 1.40625l0 1.1875l-0.09375 2.03125q-0.078125 0.921875 -0.078125 2.015625q0 2.375 0.125 4.71875q0.1875 3.296875 0.890625 6.421875q0.703125 3.25 2.0625 3.25zm11.839966 1.328125q-0.578125 -2.34375 -0.578125 -6.46875l0.09375 -3.921875q0.078125 -1.765625 0.078125 -3.90625q-0.265625 -0.625 -0.265625 -1.109375l0 -0.125q0.453125 -0.84375 0.453125 -3.796875l0.03125 -2.015625q0.046875 -0.96875 0.046875 -2.15625q0 -2.59375 -0.34375 -4.09375q0.125 -0.60939026 0.4375 -1.0625153q0.3125 -0.46875 0.75 -0.46875l1.9375 0q1.234375 0 2.15625 0.546875q0.921875 0.546875 1.40625 1.5625153q0.875 1.796875 0.875 4.265625q0 1.75 -0.046875 2.765625q-0.078125 1.28125 -0.4375 2.328125q-0.125 0.578125 -0.375 0.953125q-0.234375 0.375 -0.671875 0.90625q-0.625 0.75 -2.03125 1.40625q-0.578125 0.3125 -1.5 0.5625l0 4.71875l0.09375 2.8125l0.09375 1.359375q0.171875 2.46875 0.171875 4.1875q0 0.53125 -0.453125 0.90625q-0.4375 0.375 -1.0 0.375l-0.921875 -0.53125zm2.0625 -15.625q2.59375 -0.390625 2.59375 -7.4375q0 -1.28125 -0.125 -1.984375q-0.140625 -0.515625 -0.359375 -0.84375q-0.21875 -0.34375 -0.65625 -0.5625q-0.484375 -0.265625 -1.0625 -0.265625q0 -0.03125 -0.484375 -0.03125l0 2.5q0 2.59375 0.046875 4.625q0 2.28125 0.046875 2.984375l0 0.921875l0 0.09375zm16.098343 16.015625q-1.578125 -0.53125 -3.90625 -0.53125q-0.703125 0.4375 -1.5 0.4375q-0.53125 0 -0.90625 -0.46875q-0.375 -0.453125 -0.375 -0.984375q0 -3.6875 0.3125 -9.84375q0.265625 -6.5625 0.265625 -9.8125l0 -0.3125q-0.265625 -2.765625 -0.265625 -4.140625q0 -4.1718903 1.546875 -4.1718903q0.4375 0 0.765625 0.328125q0.328125 0.328125 0.328125 0.765625q0 0.53126526 -0.125 1.6718903q-0.140625 1.109375 -0.140625 1.671875q0 2.953125 0.046875 5.328125q0.046875 2.328125 0.046875 5.28125q-0.21875 0.65625 -0.21875 1.84375l0 0.53125l-0.09375 3.46875q-0.09375 1.546875 -0.09375 3.53125q0 3.03125 1.453125 3.03125q0.09375 0 0.28125 -0.015625q0.203125 -0.03125 0.5625 -0.03125q0.390625 -0.046875 1.015625 -0.046875q2.375 0 2.375 1.328125q0 0.4375 -0.40625 0.734375q-0.390625 0.3125 -0.96875 0.40625zm7.041977 -0.125q-0.5625 0 -1.03125 -0.40625q-0.453125 -0.390625 -0.5 -0.96875l0 -1.140625l0 -0.875q-0.046875 -0.40625 -0.046875 -0.921875q0 -0.921875 -0.140625 -2.828125l-0.078125 -2.8125q0 -2.15625 0.125 -6.421875q0.1875 -3.828125 0.1875 -6.421875q0 -0.625 -0.140625 -1.84375q-0.125 -1.28125 -0.125 -1.859375q0 -3.1250153 1.84375 -3.1250153q1.453125 0 3.359375 0.578125q1.921875 0.578125 1.921875 1.3593903q0 0.453125 -0.375 0.828125q-0.375 0.359375 -0.90625 0.578125q-1.84375 -0.65625 -3.34375 -0.875q0.046875 0.65625 0.046875 1.890625q0 1.765625 -0.046875 3.171875q-0.125 2.109375 -0.125 3.171875l0.125 0.703125l0.703125 -0.046875q0.359375 -0.046875 0.890625 -0.046875q2.109375 0 2.109375 1.234375q0 0.484375 -0.40625 0.8125q-0.390625 0.328125 -1.0 0.328125q-0.796875 0 -1.234375 -0.078125l-1.109375 0q0.09375 1.140625 0.09375 3.34375q0 2.1875 -0.046875 3.953125q-0.125 2.6875 -0.125 4.0q0 2.46875 0.078125 2.46875l1.453125 -0.046875q0.75 -0.046875 1.8125 -0.046875q1.671875 0 1.671875 1.0625q0 0.609375 -0.5625 0.9375q-0.546875 0.34375 -1.328125 0.34375l-3.75 0zm13.824097 0.125q-0.578125 0 -1.015625 -0.484375q-0.4375 -0.484375 -0.4375 -1.09375q0 -0.671875 0.484375 -1.1875q0.484375 -0.53125 1.140625 -0.53125q0.609375 0 1.09375 0.53125q0.484375 0.515625 0.484375 1.140625q0 0.703125 -0.5 1.15625q-0.5 0.46875 -1.25 0.46875z" fill-rule="nonzero"/><path fill="#000000" fill-opacity="0.0" d="m495.74802 351.43948l229.35434 0l0 142.70868l-229.35434 0z" fill-rule="evenodd"/><path fill="#adadad" d="m509.88864 403.64825q-1.578125 0 -2.71875 -0.578125q-0.703125 -0.390625 -0.703125 -0.921875q0 -0.53125 0.265625 -0.859375q0.265625 -0.328125 0.75 -0.328125q0.4375 0 1.265625 0.359375q0.921875 0.34375 1.140625 0.34375q0.84375 0 1.515625 -0.71875q0.6875305 -0.734375 1.0937805 -1.921875q0.78125 -2.203125 0.78125 -3.953125q0 -1.890625 -0.59375 -3.984375q-0.59375 -2.09375 -1.5937805 -4.0625l-0.71875 -1.421875q-1.09375 -2.1875 -1.6875 -3.46875q-0.59375 -1.28125 -1.03125 -2.765625q-0.65625 -2.125 -0.65625 -4.09375q0 -1.59375 0.546875 -3.0q0.546875 -1.40625 1.640625 -2.375q1.109375 -1.046875 2.734375 -1.046875q0.7969055 0 1.5312805 0.46875q0.75 0.453125 1.0625 1.15625l-0.75 0.921875q-1.140625 0 -1.71875 -0.4375q-0.7812805 0.078125 -1.3750305 0.765625q-0.59375 0.6875 -0.90625 1.5625q-0.265625 0.828125 -0.265625 1.671875q0 1.671875 0.453125 3.40625q0.46875 1.734375 1.21875 3.28125l3.0781555 6.15625q0.75 1.59375 1.1875 3.578125q0.4375 1.96875 0.4375 3.953125q0 2.90625 -1.40625 5.453125q-0.75 1.3125 -1.9375 2.078125q-1.1875305 0.78125 -2.6406555 0.78125zm16.195465 -0.125q-1.140625 0 -2.109375 -0.734375q-0.96875 -0.71875 -1.578125 -1.953125q-1.28125 -2.6875 -1.59375 -5.859375q-0.390625 -2.984375 -0.390625 -5.765625q0 -0.515625 0.046875 -0.875l0 -0.796875q0 -0.21875 -0.046875 -0.21875l0 -0.78125l0.046875 -3.09375q0.046875 -1.40625 0.34375 -4.484375q0.21875 -2.109375 1.015625 -4.09375q0.3125 -0.875 0.796875 -1.328125q0.484375 -0.46875 1.09375 -0.46875q1.765625 0 3.171875 0.640625q1.40625 0.625 2.375 1.78125q0.875 1.09375 1.484375 2.703125q0.625 1.609375 0.890625 3.40625q0.265625 1.84375 0.265625 3.921875l0 0.34375q0 1.375 0.046875 2.46875l0.046875 2.5q0 12.6875 -5.90625 12.6875zm-0.171875 -1.859375q0.796875 0 1.453125 -0.625q0.65625 -0.640625 1.015625 -1.75q0.828125 -2.234375 1.0 -4.84375q0.234375 -2.234375 0.234375 -3.859375q0 -1.984375 -0.3125 -5.203125q-0.265625 -3.390625 -0.265625 -5.0625l0 -0.78125q-0.09375 -1.671875 -1.125 -2.90625q-1.03125 -1.234375 -2.53125 -1.234375q-1.5 0 -1.984375 1.71875q-0.4375 1.359375 -0.4375 3.515625q0 0.84375 0.046875 1.40625l0 1.1875l-0.09375 2.03125q-0.078125 0.921875 -0.078125 2.015625q0 2.375 0.125 4.71875q0.1875 3.296875 0.890625 6.421875q0.703125 3.25 2.0625 3.25zm16.76184 1.625q-0.96875 0 -2.046875 -0.28125q-1.078125 -0.28125 -1.640625 -0.640625q-2.953125 -1.890625 -2.953125 -10.328125l0 -1.203125l0 -1.359375l0 -1.046875q0 -1.765625 0.046875 -3.140625q0.046875 -1.390625 0.171875 -3.03125q0.125 -1.703125 0.390625 -2.78125q0.265625 -1.078125 0.890625 -2.453125q0.515625 -1.265625 1.28125 -1.96875q0.78125 -0.71875 2.015625 -1.1875q1.09375 -0.484375 2.71875 -0.484375q0.671875 0 1.015625 0.3125q0.359375 0.296875 0.359375 0.78125q0 0.4375 -0.296875 0.796875q-0.28125 0.34375 -0.671875 0.390625l-2.078125 0q-0.875 0 -1.53125 1.109375q-0.65625 1.09375 -0.921875 2.84375q-0.578125 3.265625 -0.578125 5.28125l0 0.21875l-0.09375 4.234375q-0.078125 1.890625 -0.078125 4.265625q0 1.671875 0.125 2.71875q0.21875 1.59375 0.75 2.640625q0.53125 1.1875 1.8125 1.71875q0.65625 0.265625 1.453125 0.265625q0.484375 0 0.96875 -0.34375q0.5625 0 0.9375 0.25q0.375 0.234375 0.375 0.71875q0 1.703125 -2.421875 1.703125zm8.588501 -0.65625q-3.828125 0 -3.828125 -1.3125q0 -1.0625 1.359375 -1.0625l0.484375 0l0.4375 0.046875q0.359375 0 0.484375 -0.21875q0.125 -0.21875 0.125 -0.796875q0 -0.75 -0.078125 -2.328125q-0.140625 -1.0625 -0.3125 -3.78125q-0.390625 -6.734375 -0.390625 -10.171875q0 -1.234375 0.046875 -2.234375l0.03125 -2.25q0 -1.453125 -0.125 -2.421875q-0.703125 0.171875 -1.015625 0.171875q-1.046875 0 -1.046875 -1.046875q0 -0.53125 0.65625 -0.921875q0.65625 -0.40625 1.671875 -0.578125q1.75 -0.34375 3.125 -0.34375q0.53125 0 0.890625 0.375q0.375 0.359375 0.375 0.84375q0 0.484375 -0.28125 0.84375q-0.28125 0.34375 -0.71875 0.34375q-0.265625 0 -0.4375 -0.03125l-0.359375 0q-0.4375 0 -0.640625 0.203125q-0.203125 0.1875 -0.203125 0.71875q0 4.265625 0.53125 12.84375q0.09375 1.578125 0.359375 4.671875q0.21875 2.015625 0.21875 4.125l0 1.671875q0.265625 -0.046875 0.875 -0.046875q1.84375 0 1.84375 1.546875l0 0.265625l-1.09375 0.75q-0.046875 0 -0.296875 0.03125q-0.234375 0.015625 -0.890625 0.015625q-1.40625 0.078125 -1.796875 0.078125zm16.41272 0.4375q-1.015625 0 -1.5 -0.3125q-0.484375 -0.296875 -0.484375 -1.140625q0 -1.3125 -0.4375 -4.484375l-0.1875 -0.921875l-4.34375 -0.65625q-0.265625 1.015625 -0.75 4.09375q-0.265625 2.15625 -0.84375 2.859375q-0.296875 0.390625 -0.875 0.390625q-0.53125 0 -0.96875 -0.328125q-0.4375 -0.328125 -0.4375 -0.8125l0.078125 -0.21875l0.046875 -0.171875q2.90625 -11.3125 4.40625 -22.3125q0 -0.171875 0.03125 -0.59375q0.046875 -0.421875 0.09375 -1.21875q0.140625 -1.625 0.28125 -2.59375q0.15625 -0.96875 0.515625 -1.453125l1.5 0q0.609375 0 1.046875 0.296875q0.4375 0.28125 0.4375 0.8125q0 3.34375 0.9375 9.9375q0.875 6.78125 0.875 9.5q0 0.265625 0.21875 1.375q0.21875 1.0 0.21875 1.3125q0 0.3125 0.4375 2.640625q0.40625 2.109375 0.40625 2.734375l0 0.03125q0 0.96875 -0.703125 1.234375zm-2.90625 -8.4375q-0.140625 -0.671875 -0.140625 -1.640625q0 -3.953125 -0.703125 -10.109375l-0.4375 -4.578125q-1.890625 10.34375 -2.59375 15.625q0.65625 0.4375 3.875 0.703125zm14.155945 8.75q-1.578125 -0.53125 -3.90625 -0.53125q-0.703125 0.4375 -1.5 0.4375q-0.53125 0 -0.90625 -0.46875q-0.375 -0.453125 -0.375 -0.984375q0 -3.6875 0.3125 -9.84375q0.265625 -6.5625 0.265625 -9.8125l0 -0.3125q-0.265625 -2.765625 -0.265625 -4.140625q0 -4.171875 1.546875 -4.171875q0.4375 0 0.765625 0.328125q0.328125 0.328125 0.328125 0.765625q0 0.53125 -0.125 1.671875q-0.140625 1.109375 -0.140625 1.671875q0 2.953125 0.046875 5.328125q0.046875 2.328125 0.046875 5.28125q-0.21875 0.65625 -0.21875 1.84375l0 0.53125l-0.09375 3.46875q-0.09375 1.546875 -0.09375 3.53125q0 3.03125 1.453125 3.03125q0.09375 0 0.28125 -0.015625q0.203125 -0.03125 0.5625 -0.03125q0.390625 -0.046875 1.015625 -0.046875q2.375 0 2.375 1.328125q0 0.4375 -0.40625 0.734375q-0.390625 0.3125 -0.96875 0.40625zm8.370117 0q-0.578125 0 -1.015625 -0.484375q-0.4375 -0.484375 -0.4375 -1.09375q0 -0.671875 0.484375 -1.1875q0.484375 -0.53125 1.140625 -0.53125q0.609375 0 1.09375 0.53125q0.484375 0.515625 0.484375 1.140625q0 0.703125 -0.5 1.15625q-0.5 0.46875 -1.25 0.46875z" fill-rule="nonzero"/><path fill="#000000" fill-opacity="0.0" d="m346.7205 111.806984l229.35434 0l0 142.70865l-229.35434 0z" fill-rule="evenodd"/><path fill="#ffffff" d="m360.37674 163.53136q-0.5625 0 -1.03125 -0.421875q-0.453125 -0.421875 -0.453125 -0.984375q0 -0.390625 0.171875 -0.96875q0.125 -0.625 0.125 -0.921875q0 -3.921875 -0.4375 -15.046875q-0.4375 -9.515625 -0.4375 -15.015625q0 -0.390625 0.3125 -0.625q0.3125 -0.25 0.75 -0.25q0.53125 0 0.921875 0.375q0.390625 0.375 0.390625 0.90625q0 2.640625 0.265625 7.921875q0.21875 5.84375 0.21875 7.921875l0.046875 0.515625l0 0.53125l0 0.3125l0 0.21875q0.125 3.828125 0.125 11.4375l0 1.140625l3.390625 0q0.921875 0.671875 0.921875 1.328125q0 0.484375 -0.328125 0.859375q-0.328125 0.375 -0.765625 0.375q-0.125 0 -0.484375 -0.09375l-0.171875 -0.046875q-0.265625 0.046875 -0.84375 0.046875l-0.75 0q-0.296875 -0.046875 -0.703125 -0.046875q-0.4375 0.53125 -1.234375 0.53125zm14.1718445 0.359375q-1.140625 0 -2.109375 -0.734375q-0.96875 -0.71875 -1.578125 -1.953125q-1.28125 -2.6875 -1.59375 -5.859375q-0.390625 -2.984375 -0.390625 -5.765625q0 -0.515625 0.046875 -0.875l0 -0.796875q0 -0.21875 -0.046875 -0.21875l0 -0.78125l0.046875 -3.09375q0.046875 -1.40625 0.34375 -4.484375q0.21875 -2.109375 1.015625 -4.09375q0.3125 -0.875 0.796875 -1.328125q0.484375 -0.46875 1.09375 -0.46875q1.765625 0 3.171875 0.640625q1.40625 0.625 2.375 1.78125q0.875 1.09375 1.484375 2.703125q0.625 1.609375 0.890625 3.40625q0.265625 1.84375 0.265625 3.921875l0 0.34375q0 1.375 0.046875 2.46875l0.046875 2.5q0 12.6875 -5.90625 12.6875zm-0.171875 -1.859375q0.796875 0 1.453125 -0.625q0.65625 -0.640625 1.015625 -1.75q0.828125 -2.234375 1.0 -4.84375q0.234375 -2.234375 0.234375 -3.859375q0 -1.984375 -0.3125 -5.203125q-0.265625 -3.390625 -0.265625 -5.0625l0 -0.78125q-0.09375 -1.671875 -1.125 -2.90625q-1.03125 -1.234375 -2.53125 -1.234375q-1.5 0 -1.984375 1.71875q-0.4375 1.359375 -0.4375 3.515625q0 0.84375 0.046875 1.40625l0 1.1875l-0.09375 2.03125q-0.078125 0.921875 -0.078125 2.015625q0 2.375 0.125 4.71875q0.1875 3.296875 0.890625 6.421875q0.703125 3.25 2.0625 3.25zm16.76184 1.625q-0.96875 0 -2.046875 -0.28125q-1.078125 -0.28125 -1.640625 -0.640625q-2.953125 -1.890625 -2.953125 -10.328125l0 -1.203125l0 -1.359375l0 -1.046875q0 -1.765625 0.046875 -3.140625q0.046875 -1.390625 0.171875 -3.03125q0.125 -1.703125 0.390625 -2.78125q0.265625 -1.078125 0.890625 -2.453125q0.515625 -1.265625 1.28125 -1.96875q0.78125 -0.71875 2.015625 -1.1875q1.09375 -0.484375 2.71875 -0.484375q0.671875 0 1.015625 0.3125q0.359375 0.296875 0.359375 0.78125q0 0.4375 -0.296875 0.796875q-0.28125 0.34375 -0.671875 0.390625l-2.078125 0q-0.875 0 -1.53125 1.109375q-0.65625 1.09375 -0.921875 2.84375q-0.578125 3.265625 -0.578125 5.28125l0 0.21875l-0.09375 4.234375q-0.078125 1.890625 -0.078125 4.265625q0 1.671875 0.125 2.71875q0.21875 1.59375 0.75 2.640625q0.53125 1.1875 1.8125 1.71875q0.65625 0.265625 1.453125 0.265625q0.484375 0 0.96875 -0.34375q0.5625 0 0.9375 0.25q0.375 0.234375 0.375 0.71875q0 1.703125 -2.421875 1.703125zm15.05722 -0.21875q-1.015625 0 -1.5 -0.3125q-0.484375 -0.296875 -0.484375 -1.140625q0 -1.3125 -0.4375 -4.484375l-0.1875 -0.921875l-4.34375 -0.65625q-0.265625 1.015625 -0.75 4.09375q-0.265625 2.15625 -0.84375 2.859375q-0.296875 0.390625 -0.875 0.390625q-0.53125 0 -0.96875 -0.328125q-0.4375 -0.328125 -0.4375 -0.8125l0.078125 -0.21875l0.046875 -0.171875q2.90625 -11.3125 4.40625 -22.3125q0 -0.171875 0.03125 -0.59375q0.046875 -0.421875 0.09375 -1.21875q0.140625 -1.625 0.28125 -2.59375q0.15625 -0.96875 0.515625 -1.453125l1.5 0q0.609375 0 1.046875 0.296875q0.4375 0.28125 0.4375 0.8125q0 3.34375 0.9375 9.9375q0.875 6.78125 0.875 9.5q0 0.265625 0.21875 1.375q0.21875 1.0 0.21875 1.3125q0 0.3125 0.4375 2.640625q0.40625 2.109375 0.40625 2.734375l0 0.03125q0 0.96875 -0.703125 1.234375zm-2.90625 -8.4375q-0.140625 -0.671875 -0.140625 -1.640625q0 -3.953125 -0.703125 -10.109375l-0.4375 -4.578125q-1.890625 10.34375 -2.59375 15.625q0.65625 0.4375 3.875 0.703125zm14.155975 8.75q-1.578125 -0.53125 -3.90625 -0.53125q-0.703125 0.4375 -1.5 0.4375q-0.53125 0 -0.90625 -0.46875q-0.375 -0.453125 -0.375 -0.984375q0 -3.6875 0.3125 -9.84375q0.265625 -6.5625 0.265625 -9.8125l0 -0.3125q-0.265625 -2.765625 -0.265625 -4.140625q0 -4.171875 1.546875 -4.171875q0.4375 0 0.765625 0.328125q0.328125 0.328125 0.328125 0.765625q0 0.53125 -0.125 1.671875q-0.140625 1.109375 -0.140625 1.671875q0 2.953125 0.046875 5.328125q0.046875 2.328125 0.046875 5.28125q-0.21875 0.65625 -0.21875 1.84375l0 0.53125l-0.09375 3.46875q-0.09375 1.546875 -0.09375 3.53125q0 3.03125 1.453125 3.03125q0.09375 0 0.28125 -0.015625q0.203125 -0.03125 0.5625 -0.03125q0.390625 -0.046875 1.015625 -0.046875q2.375 0 2.375 1.328125q0 0.4375 -0.40625 0.734375q-0.390625 0.3125 -0.96875 0.40625zm8.370117 0q-0.578125 0 -1.015625 -0.484375q-0.4375 -0.484375 -0.4375 -1.09375q0 -0.671875 0.484375 -1.1875q0.484375 -0.53125 1.140625 -0.53125q0.609375 0 1.09375 0.53125q0.484375 0.515625 0.484375 1.140625q0 0.703125 -0.5 1.15625q-0.5 0.46875 -1.25 0.46875z" fill-rule="nonzero"/><path fill="#000000" fill-opacity="0.0" d="m749.6011 232.37007l229.35431 0l0 142.70866l-229.35431 0z" fill-rule="evenodd"/><path fill="#b7c892" d="m768.9448 284.26633q-0.578125 0 -0.859375 -0.421875q-0.28125 -0.40625 -0.28125 -1.03125q0 -9.1875 -0.359375 -15.53125q-1.0625 -0.171875 -1.5 -0.171875q-1.796875 0 -2.59375 0.3125q0 2.453125 0.390625 7.4375q0.359375 5.28125 0.359375 7.46875q0 0.4375 -0.265625 0.8125q-0.265625 0.375 -0.65625 0.375q-0.578125 0 -1.0625 -2.015625q-0.703125 -3.0 -1.140625 -12.546875q-0.3125 -6.46875 -0.3125 -13.90625q-0.03125 -1.359375 -0.03125 -3.859375q0 -0.796875 0.734375 -0.796875q0.453125 0 0.90625 0.21875q0.46875 0.21875 0.6875 0.484375q-0.171875 1.40625 -0.171875 3.296875q0 1.84375 0.171875 4.484375q0.125 3.046875 0.125 4.578125l0 0.796875q-0.046875 0.34375 -0.046875 0.828125q0 0.453125 0.09375 1.15625q0.265625 0 0.875 -0.046875q0.625 -0.046875 1.234375 -0.140625q1.453125 -0.125 2.15625 -0.125q0 -3.828125 -0.078125 -7.078125l-0.09375 -7.359375l0 -1.1875q0.578125 0 1.015625 0.203125q0.4375 0.203125 0.65625 0.5q0.390625 0.484375 0.484375 1.671875l0 1.015625q0 3.78125 0.4375 14.484375q0.390625 9.671875 0.390625 14.515625q0 0.609375 -0.375 1.09375q-0.359375 0.484375 -0.890625 0.484375zm12.0043335 0.1875q-1.140625 0 -2.109375 -0.734375q-0.96875 -0.71875 -1.578125 -1.953125q-1.28125 -2.6875 -1.59375 -5.859375q-0.390625 -2.984375 -0.390625 -5.765625q0 -0.515625 0.046875 -0.875l0 -0.796875q0 -0.21875 -0.046875 -0.21875l0 -0.78125l0.046875 -3.09375q0.046875 -1.40625 0.34375 -4.484375q0.21875 -2.109375 1.015625 -4.09375q0.3125 -0.875 0.796875 -1.328125q0.484375 -0.46875 1.09375 -0.46875q1.765625 0 3.171875 0.640625q1.40625 0.625 2.375 1.78125q0.875 1.09375 1.484375 2.703125q0.625 1.609375 0.890625 3.40625q0.265625 1.84375 0.265625 3.921875l0 0.34375q0 1.375 0.046875 2.46875l0.046875 2.5q0 12.6875 -5.90625 12.6875zm-0.171875 -1.859375q0.796875 0 1.453125 -0.625q0.65625 -0.640625 1.015625 -1.75q0.828125 -2.234375 1.0 -4.84375q0.234375 -2.234375 0.234375 -3.859375q0 -1.984375 -0.3125 -5.203125q-0.265625 -3.390625 -0.265625 -5.0625l0 -0.78125q-0.09375 -1.671875 -1.125 -2.90625q-1.03125 -1.234375 -2.53125 -1.234375q-1.5 0 -1.984375 1.71875q-0.4375 1.359375 -0.4375 3.515625q0 0.84375 0.046875 1.40625l0 1.1875l-0.09375 2.03125q-0.078125 0.921875 -0.078125 2.015625q0 2.375 0.125 4.71875q0.1875 3.296875 0.890625 6.421875q0.703125 3.25 2.0625 3.25zm28.60559 3.296875q-1.375 0 -1.375 -2.71875l0 -2.8125l0 -2.828125q0 -2.1875 -0.296875 -5.765625q-0.359375 -4.0 -0.359375 -5.5l0.09375 -2.71875q0.078125 -1.1875 0.078125 -2.6875q-0.171875 0.578125 -1.453125 6.078125q-1.265625 5.3125 -2.640625 9.859375q-1.3125 4.34375 -2.15625 4.34375q-0.828125 0 -1.34375 -0.5q-0.5 -0.5 -0.5 -1.390625q0 -1.9375 -1.5625 -8.21875q-1.5625 -6.296875 -2.828125 -10.296875l-0.265625 4.96875q-0.359375 6.296875 -0.484375 10.46875q-0.09375 4.046875 -0.09375 5.546875q0 0.34375 0.046875 0.65625l0 0.625q0 0.734375 -0.3125 1.109375q-0.3125 0.375 -1.140625 0.375q-0.4375 0 -0.84375 -0.328125q-0.390625 -0.328125 -0.390625 -0.71875q0 -4.484375 0.65625 -13.46875q0.671875 -8.96875 0.671875 -13.46875q-0.265625 -0.390625 -0.265625 -0.828125q0 -0.53125 0.5 -0.8125q0.5 -0.296875 1.21875 -0.296875q0.5625 0 2.09375 4.140625q1.546875 4.140625 3.078125 9.375q1.546875 5.234375 2.0 7.5625q0.34375 -1.1875 0.5625 -2.1875l0.265625 -1.0625q1.40625 -6.15625 2.8125 -11.140625q0.84375 -3.03125 1.625 -4.75q0.796875 -1.84375 1.453125 -1.84375q0.625 0 1.125 0.328125q0.515625 0.328125 0.515625 0.859375q0 3.171875 0.25 9.5q0.3125 5.90625 0.3125 9.15625l-0.046875 2.328125l-0.078125 2.34375q0 0.515625 0.125 1.578125l0.140625 1.546875q0.03125 0.390625 0.046875 0.609375q0.03125 0.21875 0.03125 0.265625q0.21875 0.5625 0.21875 0.828125q0 0.75 -0.4375 1.3125q-0.4375 0.578125 -1.046875 0.578125zm8.96521 -1.703125q-0.5625 0 -1.03125 -0.40625q-0.453125 -0.390625 -0.5 -0.96875l0 -1.140625l0 -0.875q-0.046875 -0.40625 -0.046875 -0.921875q0 -0.921875 -0.140625 -2.828125l-0.078125 -2.8125q0 -2.15625 0.125 -6.421875q0.1875 -3.828125 0.1875 -6.421875q0 -0.625 -0.140625 -1.84375q-0.125 -1.28125 -0.125 -1.859375q0 -3.125 1.84375 -3.125q1.453125 0 3.359375 0.578125q1.921875 0.578125 1.921875 1.359375q0 0.453125 -0.375 0.828125q-0.375 0.359375 -0.90625 0.578125q-1.84375 -0.65625 -3.34375 -0.875q0.046875 0.65625 0.046875 1.890625q0 1.765625 -0.046875 3.171875q-0.125 2.109375 -0.125 3.171875l0.125 0.703125l0.703125 -0.046875q0.359375 -0.046875 0.890625 -0.046875q2.109375 0 2.109375 1.234375q0 0.484375 -0.40625 0.8125q-0.390625 0.328125 -1.0 0.328125q-0.796875 0 -1.234375 -0.078125l-1.109375 0q0.09375 1.140625 0.09375 3.34375q0 2.1875 -0.046875 3.953125q-0.125 2.6875 -0.125 4.0q0 2.46875 0.078125 2.46875l1.453125 -0.046875q0.75 -0.046875 1.8125 -0.046875q1.671875 0 1.671875 1.0625q0 0.609375 -0.5625 0.9375q-0.546875 0.34375 -1.328125 0.34375l-3.75 0zm16.199097 -0.21875q-1.234375 0 -2.25 -0.46875q-1.015625 -0.46875 -1.71875 -1.203125q-0.5625 -0.625 -1.046875 -1.8125q-0.484375 -1.1875 -0.703125 -2.28125q-0.21875 -0.84375 -0.359375 -2.421875q-0.125 -1.59375 -0.171875 -2.734375l0 -2.546875l0 -1.765625q0 -2.546875 0.09375 -4.171875q0.078125 -1.984375 0.5625 -4.1875q0.40625 -1.984375 1.375 -3.46875q0.921875 -1.5 2.59375 -2.078125q0.78125 -0.296875 1.84375 -0.296875q1.890625 0 1.890625 1.09375q0 0.53125 -0.421875 0.859375q-0.40625 0.328125 -0.984375 0.328125q-0.265625 0 -0.484375 -0.046875q-0.171875 -0.046875 -0.4375 -0.046875q-0.75 0 -1.328125 0.796875q-0.5625 0.796875 -0.96875 2.203125q-0.703125 2.734375 -0.96875 5.9375q-0.171875 3.0 -0.171875 4.4375q0 1.5 0.140625 4.09375q0.171875 2.421875 0.734375 4.234375q0.3125 1.046875 0.734375 1.6875q0.421875 0.640625 1.078125 1.078125q0.75 0.484375 1.53125 0.484375q2.125 0 2.125 -7.03125l0 -2.03125q-0.3125 -0.125 -1.015625 -0.125l-0.390625 0l-0.484375 0q-1.546875 0 -1.546875 -1.015625q0 -0.625 0.40625 -0.953125q0.421875 -0.328125 1.09375 -0.328125l0 0.046875l0.609375 0q3.96875 0 3.96875 1.359375q0 0.40625 -0.21875 1.59375q-0.265625 1.046875 -0.265625 1.578125q0 0.75 0.125 2.328125l0.09375 2.328125q0 2.125 -1.484375 3.34375q-1.46875 1.203125 -3.578125 1.203125zm17.208313 0.390625q-0.96875 0 -1.765625 -2.109375q-0.921875 -2.296875 -1.359375 -4.71875l-0.3125 -1.484375q-1.28125 -6.296875 -1.625 -7.171875l-0.53125 0q0 1.265625 -0.046875 2.328125l0 2.421875q0 5.890625 0.84375 9.1875l-0.484375 1.1875l-1.234375 0l-0.578125 -0.65625l0.046875 -2.953125q0 -3.953125 -0.390625 -12.0q-0.359375 -8.578125 -0.359375 -12.015625q0 -2.109375 1.453125 -2.109375q2.375 0 3.890625 1.234375q1.515625 1.21875 1.515625 3.421875l0 3.078125q0 0.671875 -0.21875 1.53125q-0.21875 0.84375 -0.484375 1.375l-0.828125 1.59375l-0.703125 1.3125l0.21875 1.0625l0.609375 3.125q0.625 3.375 1.1875 5.5q0.578125 2.109375 1.40625 3.828125l0.265625 0.515625q0.453125 0.890625 0.453125 1.40625q0 0.453125 -0.265625 0.78125q-0.265625 0.328125 -0.703125 0.328125zm-5.421875 -17.640625q0.96875 -0.484375 1.640625 -2.65625q0.6875 -2.1875 0.6875 -4.03125q0 -1.40625 -0.34375 -2.640625q-0.21875 -0.703125 -0.734375 -1.078125q-0.5 -0.375 -1.25 -0.375l-0.078125 0.21875l-0.09375 0.390625l0.09375 5.1875q0.078125 2.296875 0.078125 4.984375zm15.839355 17.734375q-1.140625 0 -2.109375 -0.734375q-0.96875 -0.71875 -1.578125 -1.953125q-1.28125 -2.6875 -1.59375 -5.859375q-0.390625 -2.984375 -0.390625 -5.765625q0 -0.515625 0.046875 -0.875l0 -0.796875q0 -0.21875 -0.046875 -0.21875l0 -0.78125l0.046875 -3.09375q0.046875 -1.40625 0.34375 -4.484375q0.21875 -2.109375 1.015625 -4.09375q0.3125 -0.875 0.796875 -1.328125q0.484375 -0.46875 1.09375 -0.46875q1.765625 0 3.171875 0.640625q1.40625 0.625 2.375 1.78125q0.875 1.09375 1.484375 2.703125q0.625 1.609375 0.890625 3.40625q0.265625 1.84375 0.265625 3.921875l0 0.34375q0 1.375 0.046875 2.46875l0.046875 2.5q0 12.6875 -5.90625 12.6875zm-0.171875 -1.859375q0.796875 0 1.453125 -0.625q0.65625 -0.640625 1.015625 -1.75q0.828125 -2.234375 1.0 -4.84375q0.234375 -2.234375 0.234375 -3.859375q0 -1.984375 -0.3125 -5.203125q-0.265625 -3.390625 -0.265625 -5.0625l0 -0.78125q-0.09375 -1.671875 -1.125 -2.90625q-1.03125 -1.234375 -2.53125 -1.234375q-1.5 0 -1.984375 1.71875q-0.4375 1.359375 -0.4375 3.515625q0 0.84375 0.046875 1.40625l0 1.1875l-0.09375 2.03125q-0.078125 0.921875 -0.078125 2.015625q0 2.375 0.125 4.71875q0.1875 3.296875 0.890625 6.421875q0.703125 3.25 2.0625 3.25zm14.074341 1.9375q-0.875 0 -1.53125 -2.640625q-0.578125 -2.328125 -0.953125 -5.78125q-0.375 -3.453125 -0.765625 -8.734375q-0.21875 -3.4375 -0.609375 -7.34375q-0.3125 -3.265625 -0.75 -4.1875q0.390625 -0.796875 1.265625 -0.796875q1.40625 0 1.40625 2.90625q0 3.4375 0.9375 10.03125q0.921875 6.5625 1.046875 9.546875l0.21875 -1.484375q0.4375 -2.953125 0.765625 -5.5625q0.34375 -2.625 0.5625 -5.65625q0.296875 -3.390625 0.296875 -6.6875l1.1875 -0.53125q0.578125 0 0.953125 0.28125q0.375 0.28125 0.375 0.8125l0 0.359375q0.703125 2.453125 1.15625 5.390625q0.46875 2.921875 0.828125 6.875q0.265625 3.046875 0.609375 5.6875q0.84375 -5.90625 0.84375 -14.53125q0 -1.359375 0.34375 -3.34375q0.3125 -2.015625 0.3125 -3.296875q-0.140625 -0.390625 -0.140625 -0.75q0 -1.046875 1.328125 -1.046875q0.53125 0 0.828125 0.265625q0.3125 0.25 0.3125 0.734375l0 0.671875q0 0.65625 -0.125 1.140625l0 0.21875q-0.578125 1.765625 -0.578125 4.046875l0 3.21875q0 2.765625 -0.65625 8.265625q-0.703125 5.375 -0.703125 8.015625l0 0.78125q0 1.015625 -0.21875 1.71875q-0.265625 0.875 -1.28125 0.875q-0.703125 0 -1.078125 -0.453125q-0.375 -0.46875 -0.375 -1.171875q0 -3.5625 -0.75 -9.234375q-0.390625 -2.5625 -0.828125 -5.15625l-0.703125 -4.609375q-0.1875 1.265625 -0.1875 2.5q0 2.46875 -0.359375 6.515625q-0.34375 4.046875 -1.09375 7.875q-0.828125 4.265625 -1.890625 4.265625zm27.688477 -0.796875q-0.53125 0 -0.796875 -0.28125q-0.265625 -0.28125 -0.390625 -0.984375l-0.265625 -0.84375l0 -0.078125l0 -0.140625q0 -1.453125 -3.015625 -9.890625q-3.015625 -8.453125 -4.734375 -12.5l0 22.125l0.171875 0.3125q0.046875 0.09375 0.171875 0.3125q0.140625 0.21875 0.140625 0.4375q0 0.5625 -0.40625 0.96875q-0.390625 0.390625 -0.953125 0.390625q-1.40625 0 -1.40625 -2.6875l-0.046875 -7.515625q-0.046875 -3.390625 -0.046875 -7.5625q0 -1.421875 0.125 -4.09375q0.140625 -2.78125 0.140625 -4.09375q0 -2.078125 1.578125 -3.265625l0 0.265625q0.265625 -0.078125 0.359375 -0.078125q1.015625 0 2.546875 3.515625q1.234375 2.8125 2.21875 5.9375q1.0 3.125 2.625 8.890625l0.4375 1.578125q1.015625 3.5625 1.546875 5.109375q0.875 -9.46875 0.875 -22.359375l0 -0.5625q-0.046875 -0.265625 -0.046875 -0.578125q0 -1.3125 1.0625 -1.3125q0.609375 0 0.9375 0.484375q0.328125 0.484375 0.328125 1.234375l0 3.296875q-0.078125 6.765625 -0.53125 14.6875q-0.4375 7.921875 -1.046875 8.9375q-1.28125 0.34375 -1.578125 0.34375zm12.404053 0.578125q-0.578125 0 -1.015625 -0.484375q-0.4375 -0.484375 -0.4375 -1.09375q0 -0.671875 0.484375 -1.1875q0.484375 -0.53125 1.140625 -0.53125q0.609375 0 1.09375 0.53125q0.484375 0.515625 0.484375 1.140625q0 0.703125 -0.5 1.15625q-0.5 0.46875 -1.25 0.46875z" fill-rule="nonzero"/></g></svg>