<?xml version="1.0" encoding="utf-8"?>
<!-- Generator: Adobe Illustrator 23.0.3, SVG Export Plug-In . SVG Version: 6.00 Build 0)  -->
<svg version="1.1" id="Layer_1" xmlns="http://www.w3.org/2000/svg" xmlns:xlink="http://www.w3.org/1999/xlink" x="0px" y="0px"
	 viewBox="0 0 50 50" style="enable-background:new 0 0 50 50;" xml:space="preserve">
<style type="text/css">
	.st0{fill:#FDC324;}
	.st1{fill:#F90B22;}
	.st2{fill:#00BD49;}
	.st3{fill:#0390BE;}
	.st4{fill:#FF0425;}
	.st5{fill:#682CC6;}
	.st6{fill:#CC33AF;}
	.st7{fill:url(#SVGID_1_);}
	.st8{fill:url(#SVGID_2_);}
	.st9{fill:url(#SVGID_3_);}
	.st10{fill:url(#SVGID_4_);}
	.st11{fill:url(#SVGID_5_);}
	.st12{fill:url(#SVGID_6_);}
	.st13{fill:url(#SVGID_7_);}
	.st14{fill:url(#SVGID_8_);}
	.st15{fill:url(#SVGID_9_);}
	.st16{fill:url(#SVGID_10_);}
	.st17{fill:url(#SVGID_11_);}
	.st18{fill:url(#SVGID_12_);}
	.st19{fill:url(#SVGID_13_);}
	.st20{fill:url(#SVGID_14_);}
	.st21{fill:#009A34;}
	.st22{fill:url(#SVGID_15_);}
	.st23{fill:url(#SVGID_16_);}
</style>
<path class="st21" d="M28.7,27.9c0,0,0,0.1,0,0.1c-0.1,0.2-0.5,0.5-0.7,0.6c-0.5,0.5-1.1,0.9-1.6,1.4c-0.8,0.7-1.5,1.4-2.3,2
	c-0.7,0.6-0.8,1.1,0,1.8c0.9,0.8,1.6,1.8,2.4,2.7c3.8-3.7,7.2-7.2,10.7-10.7c0.7-0.7,0.8-1.1,0-1.8c-3.3-3.2-6.6-6.5-9.8-9.8
	c-0.7-0.7-1-0.5-1.6,0c-2.7,2.6-2.7,2.5-0.1,5.1c0.6,0.6,1.3,1.2,1.9,1.8c0.2,0.2,0.6,0.4,0.7,0.6c0.4,0.7-0.8,0.6-1.1,0.6
	c-8.3,0-16.5,0-24.8,0c-1.4,0-1.6-0.3-1.4-1.7C2.6,10.1,12.5,1.3,23.4,0.8c11.7-0.5,22.1,7,25,18.2c3.4,13.3-4.8,26.5-18.3,29.7
	c-3.3,0.8-6.7,0.8-10,0.1c-3.2-0.7-6.3-2-9-3.9c-2.7-1.9-5.1-4.4-6.8-7.2c-0.9-1.5-1.7-3-2.2-4.7c-0.3-0.8-0.5-1.7-0.7-2.5
	C1.2,30,1.1,29.6,1,29.2c-0.1-0.4-0.2-0.8-0.2-1.2C1,27.4,1.5,27.4,2,27.4c4.9,0,9.8,0,14.6,0c2.1,0,4.2,0,6.2,0c1,0,2.1,0,3.1,0
	c0.5,0,1,0,1.5,0C27.8,27.4,28.7,27.4,28.7,27.9z"/>
</svg>
