<?xml version="1.0" encoding="utf-8"?>
<!-- Generator: Adobe Illustrator 23.0.3, SVG Export Plug-In . SVG Version: 6.00 Build 0)  -->
<svg version="1.1" id="Layer_1" xmlns="http://www.w3.org/2000/svg" xmlns:xlink="http://www.w3.org/1999/xlink" x="0px" y="0px"
	 viewBox="0 0 50 50" style="enable-background:new 0 0 50 50;" xml:space="preserve">
<style type="text/css">
	.st0{fill:#FDC324;}
	.st1{fill:#F90B22;}
	.st2{fill:#00BD49;}
	.st3{fill:#0390BE;}
	.st4{fill:#FF0425;}
	.st5{fill:#682CC6;}
	.st6{fill:#CC33AF;}
	.st7{fill:url(#SVGID_1_);}
	.st8{fill:url(#SVGID_2_);}
	.st9{fill:url(#SVGID_3_);}
	.st10{fill:url(#SVGID_4_);}
	.st11{fill:url(#SVGID_5_);}
	.st12{fill:url(#SVGID_6_);}
	.st13{fill:url(#SVGID_7_);}
	.st14{fill:url(#SVGID_8_);}
	.st15{fill:url(#SVGID_9_);}
	.st16{fill:url(#SVGID_10_);}
	.st17{fill:url(#SVGID_11_);}
	.st18{fill:url(#SVGID_12_);}
	.st19{fill:url(#SVGID_13_);}
	.st20{fill:url(#SVGID_14_);}
	.st21{fill:#009A34;}
	.st22{fill:url(#SVGID_15_);}
	.st23{fill:url(#SVGID_16_);}
</style>
<path class="st21" d="M25.1,28c-1.5,1.4-3,2.8-4.5,4.1c-0.7,0.6-0.7,1.1,0,1.7c2.5,2.6,2.5,2.6,5,0c2.6-2.6,5.1-5.2,7.8-7.8
	c0.8-0.8,0.8-1.2,0-2c-3.1-3-6.2-6.1-9.2-9.2c-0.8-0.8-1.2-0.9-2,0c-2.4,2.4-2.4,2.4,0,4.8c1,0.9,1.9,1.8,2.9,2.8
	c-0.1,0.1-0.2,0.3-0.2,0.4c-5.6,0-11.1,0-16.7,0c-0.7,0-1-0.3-1-1c0-5.3,0-10.7,0.1-16c0-2.4,2.1-4.5,4.6-4.5
	c8.8-0.1,17.7-0.1,26.5,0c2.6,0,4.6,2.1,4.6,4.7c0,12.8,0,25.6,0,38.4c0,2.5-2.1,4.6-4.7,4.6C29.4,49,20.6,49,11.7,49
	c-2.6,0-4.6-2.1-4.6-4.7c-0.1-5.2,0-10.4,0-15.7c0-0.9,0.3-1.1,1.2-1.1c5.5,0,10.9,0,16.4,0C24.8,27.7,24.9,27.8,25.1,28z"/>
</svg>
