<?xml version="1.0" encoding="utf-8"?>
<!-- Generator: Adobe Illustrator 15.0.0, SVG Export Plug-In . SVG Version: 6.00 Build 0)  -->
<!DOCTYPE svg PUBLIC "-//W3C//DTD SVG 1.1//EN" "http://www.w3.org/Graphics/SVG/1.1/DTD/svg11.dtd">
<svg version="1.1" id="Layer_1" xmlns="http://www.w3.org/2000/svg" xmlns:xlink="http://www.w3.org/1999/xlink" x="0px" y="0px"
	 width="118.852px" height="161.028px" viewBox="0 0 118.852 161.028" enable-background="new 0 0 118.852 161.028"
	 xml:space="preserve">
<g>
	<g>
		<path fill="#5D6D36" d="M94.284,12.519C64.346,9.563,60.067,34.817,59.455,41.87c1.641-3.143,3.906-5.9,6.396-8.329
			c2.507-2.431,5.257-4.569,8.181-6.409c2.921-1.851,5.985-3.469,9.253-4.592c-2.676,2.17-5.325,4.269-7.923,6.414
			c-2.578,2.159-5.107,4.342-7.477,6.663c-2.375,2.315-4.598,4.752-6.49,7.426c-0.085,0.129-0.169,0.254-0.252,0.38
			C93.103,38.972,94.284,12.519,94.284,12.519z"/>
		<path fill="#5D6D36" d="M31.867,0c31.59,7.642,26.951,34.933,25.069,42.338c-0.556-3.794-1.889-7.405-3.562-10.778
			c-1.684-3.374-3.729-6.531-6.058-9.449c-2.312-2.923-4.867-5.665-7.799-7.979c1.956,3.167,3.911,6.257,5.79,9.36
			c1.863,3.126,3.665,6.254,5.257,9.467c1.596,3.205,2.992,6.487,3.979,9.888c0.034,0.159,0.072,0.315,0.118,0.484
			C23.645,27.396,31.867,0,31.867,0z"/>
	</g>
	<g>
		<path fill="none" d="M28.942,71.311c-5.647,4.105-9.826,9.646-12.125,16.382c-6.929,20.296,1.206,33.573,1.988,34.774
			c0.826,1.101,1.821,2.268,2.946,3.466c7.267,7.768,20.103,16.964,29.998,19.935c2.474,0.745,5.091,1.119,7.778,1.119
			c8.912,0,18.725-4.299,27.084-11.214c5.076-4.208,9.621-9.372,13.099-15.139c-8.032-4.611-14.288-12.256-17.482-21.525
			c-3.186-9.239-2.884-19.236,0.651-27.866l0.211-0.477c0.173-0.443,0.37-0.885,0.589-1.326l0.166-0.374
			c0,0-0.104,0.215-0.141,0.288c-0.017,0.035-0.014,0.028,0,0c0.018-0.038,0.059-0.121,0.141-0.288
			c-8.154-3.836-17.519-5.915-26.784-5.915C45.849,63.151,36.189,66.047,28.942,71.311z"/>
		<path fill="#B6C791" d="M83.705,69.354C83.691,69.381,83.688,69.388,83.705,69.354L83.705,69.354z"/>
		<path fill="#B6C791" d="M95.909,59.589c-0.097-0.058-0.195-0.11-0.291-0.167c0.096,0.058,0.188,0.115,0.284,0.171L95.909,59.589z"
			/>
		<path fill="#B6C791" d="M83.845,69.066c-0.082,0.167-0.123,0.25-0.141,0.288C83.741,69.281,83.845,69.066,83.845,69.066z"/>
		<path fill="#B6C791" d="M93.446,58.192c0.274,0.147,0.537,0.298,0.805,0.447C93.983,58.489,93.715,58.338,93.446,58.192z"/>
		<path fill="#B6C791" d="M57.061,63.151c9.266,0,18.63,2.078,26.784,5.915c0,0,0.032-0.049,0.09-0.133
			c2.99-5.67,9.026-10.88,9.11-10.951C70.216,45.783,39.23,45.69,19.526,60.784l9.417,10.527
			C36.189,66.047,45.849,63.151,57.061,63.151z"/>
		<path fill="#5D6D36" d="M18.806,122.467c-0.782-1.201-8.917-14.479-1.988-34.774c2.299-6.735,6.477-12.276,12.125-16.382
			l-9.417-10.527c-7.101,5.438-12.744,12.84-15.995,22.372c-9.77,28.62,3.835,47.454,3.835,47.454
			c1.113,1.511,2.442,3.08,3.926,4.679l10.459-9.355C20.627,124.735,19.632,123.568,18.806,122.467z"/>
		<path fill="#D8D8D8" d="M59.528,146.987c-2.688,0-5.305-0.374-7.778-1.119c-9.895-2.971-22.731-12.167-29.998-19.935
			l-10.459,9.355c8.916,9.619,23.851,20.253,36.419,24.026c16.537,4.967,34.4-1.313,48.292-13.045l-9.392-10.497
			C78.252,142.688,68.44,146.987,59.528,146.987z"/>
		<path fill="#E2EAC4" d="M93.29,58.104l-0.236-0.13c0,0-0.007,0.006-0.008,0.007c0.133,0.071,0.268,0.138,0.4,0.21
			C93.392,58.163,93.343,58.133,93.29,58.104z"/>
		<path fill="#E2EAC4" d="M94.25,58.639c0.459,0.257,0.915,0.516,1.367,0.783C95.173,59.16,94.716,58.899,94.25,58.639z"/>
		<path fill="#E2EAC4" d="M95.5,94.532c-3.958-11.477,0.306-23.522,9.537-28.333c0,0-0.685-0.626-1.911-1.603
			c-0.006-0.006-0.014-0.01-0.018-0.016c-0.526-0.418-1.15-0.9-1.86-1.426c-0.078-0.058-0.156-0.116-0.236-0.174
			c-1.159-0.848-2.534-1.798-4.079-2.765c0,0,0,0,0-0.001c-0.029-0.018-0.07-0.042-0.115-0.07c-0.294-0.183-0.609-0.367-0.915-0.55
			c-0.096-0.057-0.188-0.114-0.284-0.171c-0.452-0.267-0.908-0.526-1.367-0.783c-0.268-0.149-0.53-0.3-0.805-0.447
			c-0.133-0.072-0.268-0.14-0.4-0.21c-0.084,0.071-6.12,5.281-9.11,10.951c-0.058,0.084-0.09,0.133-0.09,0.133l-0.166,0.374
			c-0.219,0.441-0.416,0.883-0.589,1.326l-0.211,0.477c-3.535,8.63-3.837,18.626-0.651,27.866c3.194,9.27,9.45,16.914,17.482,21.525
			c-3.478,5.767-8.022,10.931-13.099,15.139l9.392,10.497c10.941-9.247,19.425-21.866,22.849-35.062
			C109.121,112.147,99.248,105.397,95.5,94.532z"/>
	</g>
</g>
</svg>
