<?xml version="1.0" encoding="utf-8"?>
<!-- Generator: Adobe Illustrator 15.0.0, SVG Export Plug-In . SVG Version: 6.00 Build 0)  -->
<!DOCTYPE svg PUBLIC "-//W3C//DTD SVG 1.1//EN" "http://www.w3.org/Graphics/SVG/1.1/DTD/svg11.dtd">
<svg version="1.1" id="Layer_1" xmlns="http://www.w3.org/2000/svg" xmlns:xlink="http://www.w3.org/1999/xlink" x="0px" y="0px"
	 width="1044.646px" height="221.181px" viewBox="0 0 1044.646 221.181" enable-background="new 0 0 1044.646 221.181"
	 xml:space="preserve">
<g>
	<g>
		<g>
			<path fill="#5D6D36" d="M129.504,17.195c-41.122-4.06-46.999,30.628-47.839,40.315c2.252-4.317,5.366-8.104,8.785-11.44
				c3.442-3.339,7.22-6.275,11.236-8.804c4.011-2.542,8.221-4.765,12.708-6.307c-3.674,2.98-7.314,5.864-10.881,8.81
				c-3.541,2.966-7.017,5.964-10.269,9.151c-3.264,3.181-6.316,6.528-8.915,10.2c-0.117,0.177-0.232,0.348-0.347,0.522
				C127.883,53.53,129.504,17.195,129.504,17.195z"/>
			<path fill="#5D6D36" d="M43.771,0c43.391,10.496,37.018,47.982,34.434,58.154c-0.764-5.212-2.595-10.171-4.893-14.804
				c-2.312-4.634-5.123-8.971-8.321-12.978c-3.175-4.015-6.685-7.781-10.712-10.96c2.687,4.35,5.373,8.595,7.953,12.857
				c2.559,4.294,5.034,8.591,7.221,13.003c2.192,4.403,4.109,8.911,5.466,13.581c0.047,0.218,0.098,0.433,0.162,0.666
				C32.478,37.629,43.771,0,43.771,0z"/>
		</g>
		<g>
			<path fill="none" d="M39.754,97.949c-7.758,5.639-13.496,13.25-16.654,22.501c-9.517,27.878,1.657,46.114,2.731,47.765
				c1.134,1.511,2.501,3.114,4.047,4.76c9.981,10.669,27.612,23.301,41.203,27.381c3.398,1.023,6.993,1.538,10.684,1.538
				c12.24,0,25.719-5.905,37.202-15.402c6.971-5.78,13.214-12.873,17.99-20.794c-11.033-6.335-19.625-16.835-24.014-29.567
				c-4.374-12.689-3.96-26.42,0.896-38.274l0.289-0.655c0.238-0.608,0.511-1.216,0.809-1.821l0.229-0.514
				c0,0-0.144,0.295-0.192,0.396c-0.023,0.047-0.019,0.038,0,0c0.025-0.052,0.081-0.167,0.192-0.396
				c-11.199-5.269-24.062-8.124-36.789-8.124C62.975,86.741,49.708,90.72,39.754,97.949z"/>
			<path fill="#B6C791" d="M114.973,95.261C114.954,95.299,114.949,95.308,114.973,95.261L114.973,95.261z"/>
			<path fill="#B6C791" d="M131.734,81.849c-0.132-0.079-0.268-0.151-0.4-0.229c0.132,0.079,0.26,0.157,0.392,0.235L131.734,81.849z
				"/>
			<path fill="#B6C791" d="M115.165,94.865c-0.111,0.229-0.167,0.343-0.192,0.396C115.021,95.161,115.165,94.865,115.165,94.865z"/>
			<path fill="#B6C791" d="M128.352,79.929c0.377,0.203,0.738,0.41,1.105,0.615C129.09,80.338,128.723,80.131,128.352,79.929z"/>
			<path fill="#B6C791" d="M78.376,86.741c12.728,0,25.59,2.855,36.789,8.124c0,0,0.043-0.067,0.124-0.183
				c4.106-7.789,12.397-14.944,12.513-15.042C96.446,62.885,53.885,62.758,26.819,83.491l12.935,14.458
				C49.708,90.72,62.975,86.741,78.376,86.741z"/>
			<path fill="#5D6D36" d="M25.831,168.215c-1.074-1.65-12.248-19.887-2.731-47.765c3.158-9.252,8.896-16.862,16.654-22.501
				L26.819,83.491c-9.753,7.469-17.504,17.636-21.97,30.728c-13.419,39.312,5.268,65.181,5.268,65.181
				c1.528,2.075,3.354,4.231,5.393,6.427l14.367-12.851C28.332,171.33,26.965,169.726,25.831,168.215z"/>
			<path fill="#D8D8D8" d="M81.765,201.894c-3.691,0-7.286-0.515-10.684-1.538c-13.591-4.08-31.222-16.712-41.203-27.381
				L15.51,185.826c12.247,13.213,32.76,27.818,50.024,33.002c22.714,6.822,47.25-1.805,66.33-17.918l-12.898-14.418
				C107.484,195.989,94.005,201.894,81.765,201.894z"/>
			<path fill="#E2EAC4" d="M128.138,79.81l-0.326-0.179c0,0-0.009,0.009-0.01,0.009c0.182,0.098,0.368,0.19,0.55,0.289
				C128.279,79.89,128.211,79.849,128.138,79.81z"/>
			<path fill="#E2EAC4" d="M129.457,80.544c0.63,0.353,1.258,0.708,1.877,1.076C130.725,81.259,130.098,80.901,129.457,80.544z"/>
			<path fill="#E2EAC4" d="M131.173,129.844c-5.437-15.764,0.42-32.309,13.101-38.916c0,0-0.94-0.86-2.626-2.202
				c-0.007-0.008-0.017-0.014-0.023-0.021c-0.722-0.575-1.581-1.236-2.556-1.958c-0.108-0.079-0.215-0.159-0.325-0.239
				c-1.592-1.165-3.48-2.469-5.602-3.798c0,0,0,0,0-0.002c-0.04-0.025-0.098-0.059-0.159-0.096
				c-0.404-0.251-0.837-0.504-1.256-0.756c-0.132-0.078-0.26-0.156-0.392-0.235c-0.62-0.367-1.247-0.723-1.877-1.076
				c-0.367-0.206-0.728-0.412-1.105-0.615c-0.182-0.099-0.368-0.191-0.55-0.289c-0.116,0.099-8.407,7.253-12.513,15.042
				c-0.081,0.116-0.124,0.183-0.124,0.183l-0.229,0.514c-0.298,0.605-0.571,1.213-0.809,1.821l-0.289,0.655
				c-4.856,11.854-5.27,25.585-0.896,38.274c4.389,12.732,12.981,23.232,24.014,29.567c-4.776,7.921-11.019,15.014-17.99,20.794
				l12.898,14.418c15.029-12.701,26.681-30.035,31.385-48.159C149.882,154.04,136.321,144.769,131.173,129.844z"/>
		</g>
	</g>
</g>
<g>
	<path fill="#5D6D36" d="M186.812,134.238c0.348-5.761,0.982-11.041,1.898-15.843c0.917-4.799,2.334-8.968,4.255-12.503
		c1.919-3.535,4.473-6.327,7.659-8.38c3.186-2.05,7.179-3.207,11.98-3.469c4.451-0.174,8.183,0.372,11.194,1.636
		c3.011,1.267,5.411,3.077,7.201,5.434c1.788,2.357,3.031,5.194,3.731,8.511c0.697,3.318,0.959,6.853,0.785,10.604l-14.271-0.262
		c0-1.31-0.131-2.639-0.393-3.993c-0.262-1.353-0.677-2.553-1.243-3.601c-0.569-1.047-1.332-1.833-2.292-2.356
		c-0.961-0.523-2.14-0.609-3.534-0.262c-3.23,0.873-5.61,3.535-7.136,7.986c-1.528,4.451-2.554,9.95-3.077,16.497h26.709v14.271
		h-27.232c-0.176,5.938-0.196,12.025-0.065,18.265c0.131,6.241,0.151,12.418,0.065,18.526h-17.021
		c0.174-6.37,0.239-12.635,0.196-18.788c-0.045-6.153-0.022-12.153,0.065-18.003h-8.642v-14.271H186.812z"/>
	<path fill="#5D6D36" d="M278.723,142.486c-0.962-1.745-2.16-3.251-3.601-4.517c-1.44-1.265-3.165-1.984-5.172-2.16
		c-3.842-0.437-7.485,0.327-10.933,2.291c-3.449,1.964-6.088,4.823-7.921,8.575v38.624h-15.711v-64.154h15.711v4.713
		c2.269-1.309,4.845-2.553,7.725-3.731c2.881-1.178,6.065-1.854,9.558-2.029c2.967-0.086,5.65,0.196,8.053,0.852
		c2.399,0.654,4.582,1.571,6.546,2.749c1.964,1.179,3.774,2.599,5.434,4.255c1.657,1.659,3.229,3.492,4.714,5.499L278.723,142.486z"
		/>
	<path fill="#5D6D36" d="M355.315,177.051c-4.54,2.794-9.253,4.954-14.141,6.48c-4.889,1.528-9.668,2.399-14.336,2.618
		c-4.671,0.218-9.122-0.219-13.355-1.309c-4.234-1.091-7.966-2.901-11.193-5.434c-3.23-2.53-5.807-5.761-7.726-9.688
		c-1.921-3.928-2.925-8.597-3.011-14.01c-0.088-4.014,0.413-8.052,1.506-12.11c1.09-4.059,2.814-7.768,5.171-11.129
		c2.357-3.359,5.368-6.219,9.034-8.576c3.666-2.356,7.986-3.84,12.962-4.451c3.49-0.436,7.375-0.262,11.652,0.523
		c4.276,0.786,8.161,2.576,11.653,5.368c3.489,2.795,6.262,6.809,8.313,12.045c2.05,5.237,2.639,12.046,1.768,20.425l-46.479-0.131
		c0.262,3.143,1.637,5.871,4.124,8.184c2.488,2.313,5.695,3.862,9.623,4.647c3.929,0.786,8.38,0.654,13.355-0.393
		c4.975-1.048,10.081-3.404,15.318-7.07L355.315,177.051z M338.295,143.926c-0.351-3.404-1.747-5.978-4.19-7.725
		c-2.444-1.745-5.193-2.64-8.248-2.685c-3.057-0.043-6.067,0.786-9.034,2.488c-2.968,1.702-5.151,4.3-6.546,7.79L338.295,143.926z"
		/>
	<path fill="#5D6D36" d="M394.069,168.279c0.263-2.007-0.611-3.447-2.618-4.32c-2.009-0.872-4.517-1.637-7.528-2.292
		c-3.012-0.654-6.219-1.395-9.623-2.226c-3.404-0.828-6.438-2.16-9.1-3.993c-2.664-1.833-4.648-4.386-5.957-7.659
		c-1.31-3.273-1.354-7.702-0.131-13.289c0.785-3.316,2.291-6.131,4.517-8.445c2.226-2.312,4.822-4.059,7.79-5.236
		c2.967-1.179,6.175-1.768,9.623-1.768c3.447,0,6.809,0.677,10.082,2.029c3.273,1.354,6.327,3.384,9.165,6.088
		c2.835,2.706,5.171,6.198,7.004,10.475l-15.973,5.761c-0.786-2.619-2.029-4.714-3.731-6.285s-3.47-2.684-5.303-3.338
		c-1.833-0.655-3.558-0.829-5.172-0.524c-1.616,0.307-2.684,1.113-3.207,2.423c-1.136,2.532-1.354,4.582-0.655,6.153
		c0.698,1.571,1.964,2.837,3.797,3.797c1.833,0.961,4.102,1.747,6.809,2.356c2.704,0.611,5.52,1.244,8.444,1.898
		c2.924,0.654,5.781,1.397,8.576,2.226c2.792,0.831,5.192,1.986,7.201,3.47c2.007,1.485,3.47,3.404,4.386,5.761
		c0.917,2.356,0.938,5.325,0.065,8.903c-0.961,3.928-2.902,7.158-5.826,9.688c-2.926,2.533-6.329,4.366-10.212,5.499
		c-3.885,1.134-7.987,1.549-12.308,1.244c-4.32-0.307-8.336-1.354-12.045-3.143c-3.711-1.788-6.831-4.298-9.361-7.528
		c-2.533-3.229-3.928-7.201-4.19-11.914l12.962-2.619c0.786,3.58,2.312,6.308,4.583,8.184c2.269,1.878,4.647,3.056,7.136,3.535
		c2.487,0.48,4.778,0.284,6.873-0.59C392.236,171.728,393.546,170.288,394.069,168.279z"/>
	<path fill="#5D6D36" d="M464.64,185.299c0-2.792,0.043-5.912,0.131-9.361c0.086-3.447,0.065-6.939-0.065-10.475
		c-0.131-3.534-0.415-7.004-0.851-10.408c-0.438-3.404-1.158-6.459-2.16-9.165c-1.005-2.704-2.337-4.931-3.993-6.678
		c-1.659-1.744-3.754-2.749-6.285-3.011c-3.842-0.436-7.485,0.262-10.933,2.095c-3.449,1.833-6.088,4.627-7.921,8.379v38.624
		h-15.449l-0.262-92.173h15.711v32.208c2.269-1.31,4.91-2.618,7.921-3.928c3.012-1.31,6.263-2.05,9.755-2.226
		c6.546-0.086,11.914,1.397,16.104,4.451c4.189,3.057,7.463,7.463,9.819,13.224c2.357,5.761,3.883,12.745,4.583,20.948
		c0.697,8.206,0.828,17.371,0.393,27.495H464.64z"/>
	<path fill="#5D6D36" d="M506.144,188.704c1.571,2.792,3.556,5.041,5.958,6.742c2.399,1.702,5.434,2.423,9.099,2.161
		c1.833-0.089,3.556-0.416,5.172-0.982c1.614-0.568,3.032-1.659,4.255-3.273c1.222-1.616,2.246-3.885,3.077-6.808
		c0.828-2.924,1.461-6.874,1.898-11.85c-3.057,2.445-6.198,4.301-9.427,5.564c-3.23,1.267-6.241,2.117-9.034,2.554
		c-5.325,0.699-9.973,0.284-13.943-1.244c-3.973-1.526-7.289-3.797-9.95-6.809c-2.664-3.011-4.628-6.523-5.893-10.539
		c-1.266-4.014-1.898-8.139-1.898-12.373c0-4.232,0.676-8.379,2.03-12.438c1.352-4.06,3.315-7.595,5.892-10.605
		c2.573-3.012,5.804-5.323,9.688-6.939c3.883-1.614,8.399-2.115,13.551-1.506c2.967,0.351,5.978,1.201,9.034,2.554
		c3.054,1.354,6.37,3.296,9.95,5.826v-8.903h15.58c0.609,14.578,0.741,27.147,0.393,37.707c-0.35,10.562-1.178,19.423-2.487,26.578
		c-1.047,5.585-2.356,10.19-3.928,13.813c-1.571,3.621-3.427,6.523-5.564,8.706c-2.14,2.181-4.562,3.752-7.267,4.714
		c-2.706,0.959-5.718,1.571-9.034,1.833c-4.451,0.348-8.51,0-12.176-1.048c-3.666-1.047-6.919-2.575-9.754-4.582
		c-2.838-2.009-5.217-4.366-7.136-7.07c-1.921-2.706-3.318-5.544-4.189-8.51L506.144,188.704z M535.603,147.2
		c-3.928-3.229-7.528-5.607-10.802-7.136c-3.273-1.526-6.219-2.465-8.837-2.815c-3.143-0.436-5.806,0.131-7.987,1.702
		c-2.183,1.571-3.862,3.601-5.04,6.089c-1.179,2.487-1.768,5.193-1.768,8.117c0,2.925,0.544,5.564,1.637,7.921
		c1.09,2.356,2.814,4.169,5.171,5.434c2.357,1.267,5.368,1.463,9.034,0.589c2.619-0.609,5.477-1.723,8.576-3.338
		c3.097-1.614,6.436-3.949,10.016-7.005V147.2z"/>
	<path fill="#5D6D36" d="M609.053,172.992c-3.057,3.404-6.547,6.068-10.475,7.987c-3.928,1.921-7.9,3.099-11.914,3.535
		c-4.016,0.438-7.921,0.131-11.719-0.917c-3.797-1.047-7.18-2.88-10.146-5.499c-2.969-2.618-5.368-6-7.201-10.146
		c-1.833-4.145-2.706-9.1-2.618-14.86c0-5.237,0.937-9.905,2.814-14.01c1.876-4.102,4.299-7.571,7.267-10.408
		c2.967-2.836,6.371-4.976,10.213-6.416c3.84-1.439,7.745-2.115,11.718-2.029c3.971,0.088,7.876,1.005,11.718,2.75
		c3.84,1.747,7.287,4.365,10.344,7.855v-10.736h16.104l0.262,65.202h-16.365V172.992z M609.053,146.544
		c-4.104-4.625-8.402-7.725-12.896-9.296c-4.497-1.57-8.642-1.941-12.438-1.112c-3.797,0.83-6.919,2.663-9.361,5.499
		c-2.444,2.837-3.666,6.35-3.666,10.539c0,3.842,1.048,7.289,3.143,10.344c2.095,3.057,4.887,5.106,8.379,6.153
		c3.49,1.048,7.549,0.743,12.177-0.916c4.625-1.657,9.513-5.28,14.664-10.867V146.544z"/>
	<path fill="#5D6D36" d="M673.6,142.486c-0.961-1.745-2.16-3.251-3.601-4.517c-1.44-1.265-3.164-1.984-5.172-2.16
		c-3.842-0.437-7.485,0.327-10.932,2.291c-3.449,1.964-6.089,4.823-7.922,8.575v38.624h-15.711v-64.154h15.711v4.713
		c2.27-1.309,4.845-2.553,7.726-3.731c2.88-1.178,6.065-1.854,9.558-2.029c2.966-0.086,5.65,0.196,8.052,0.852
		c2.399,0.654,4.582,1.571,6.546,2.749c1.964,1.179,3.774,2.599,5.434,4.255c1.657,1.659,3.229,3.492,4.714,5.499L673.6,142.486z"/>
	<path fill="#5D6D36" d="M739.98,174.04c-3.404,3.666-7.312,6.438-11.719,8.313c-4.408,1.878-8.882,2.815-13.42,2.815
		c-4.539,0-8.555-0.806-12.045-2.422c-3.492-1.614-6.438-3.797-8.838-6.547c-2.401-2.749-4.255-5.892-5.564-9.427
		c-1.309-3.535-2.052-7.222-2.226-11.063c-0.176-3.928,0.262-7.833,1.31-11.718c1.047-3.883,2.749-7.418,5.105-10.605
		c2.357-3.185,5.368-5.892,9.034-8.117s7.987-3.687,12.962-4.386c2.705-0.348,5.346-0.262,7.921,0.262
		c2.574,0.523,4.976,1.309,7.201,2.356s4.21,2.226,5.957,3.535c1.745,1.31,3.186,2.575,4.321,3.797V93.65h16.628l0.262,91.649
		h-16.89V174.04z M740.111,150.472c-2.183-3.928-4.693-7.004-7.528-9.229c-2.838-2.227-5.74-3.709-8.707-4.452
		c-2.968-0.74-5.849-0.763-8.641-0.065c-2.795,0.7-5.237,1.964-7.332,3.797s-3.731,4.212-4.91,7.136
		c-1.179,2.926-1.594,6.219-1.244,9.885c0.174,2.095,0.917,4.059,2.227,5.892c1.309,1.833,2.966,3.361,4.975,4.583
		c2.007,1.224,4.298,2.052,6.874,2.487c2.573,0.438,5.258,0.262,8.052-0.523c2.793-0.786,5.564-2.226,8.314-4.32
		c2.749-2.096,5.345-5.062,7.79-8.903L740.111,150.472z"/>
	<path fill="#5D6D36" d="M824.821,177.051c-4.539,2.794-9.253,4.954-14.14,6.48c-4.89,1.528-9.669,2.399-14.337,2.618
		c-4.671,0.218-9.122-0.219-13.354-1.309c-4.235-1.091-7.967-2.901-11.194-5.434c-3.23-2.53-5.806-5.761-7.725-9.688
		c-1.921-3.928-2.926-8.597-3.012-14.01c-0.088-4.014,0.413-8.052,1.506-12.11c1.09-4.059,2.814-7.768,5.172-11.129
		c2.356-3.359,5.367-6.219,9.033-8.576c3.666-2.356,7.987-3.84,12.962-4.451c3.49-0.436,7.375-0.262,11.653,0.523
		c4.275,0.786,8.16,2.576,11.652,5.368c3.49,2.795,6.262,6.809,8.313,12.045c2.05,5.237,2.64,12.046,1.768,20.425l-46.479-0.131
		c0.262,3.143,1.637,5.871,4.125,8.184c2.487,2.313,5.695,3.862,9.623,4.647c3.928,0.786,8.379,0.654,13.354-0.393
		c4.975-1.048,10.081-3.404,15.318-7.07L824.821,177.051z M807.801,143.926c-0.35-3.404-1.747-5.978-4.189-7.725
		c-2.445-1.745-5.194-2.64-8.249-2.685c-3.056-0.043-6.067,0.786-9.033,2.488c-2.969,1.702-5.151,4.3-6.547,7.79L807.801,143.926z"
		/>
	<path fill="#5D6D36" d="M876.538,185.299c0-2.792,0.043-5.912,0.131-9.361c0.086-3.447,0.065-6.939-0.065-10.475
		c-0.132-3.534-0.416-7.004-0.852-10.408c-0.438-3.404-1.158-6.459-2.16-9.165c-1.005-2.704-2.336-4.931-3.993-6.678
		c-1.659-1.744-3.754-2.749-6.285-3.011c-3.842-0.436-7.485,0.262-10.932,2.095c-3.449,1.833-6.089,4.627-7.922,8.379v38.624
		h-15.711v-64.154h15.711v4.189c2.27-1.31,4.91-2.618,7.922-3.928c3.011-1.31,6.262-2.05,9.754-2.226
		c6.546-0.086,11.914,1.397,16.104,4.451c4.19,3.057,7.463,7.463,9.82,13.224c2.356,5.761,3.883,12.745,4.582,20.948
		c0.697,8.206,0.829,17.371,0.393,27.495H876.538z"/>
	<path fill="#D8D8D8" d="M897.748,176.92c0-2.357,0.828-4.364,2.487-6.023c1.657-1.656,3.666-2.487,6.022-2.487
		c2.357,0,4.364,0.831,6.022,2.487c1.657,1.659,2.488,3.666,2.488,6.023c0,2.356-0.831,4.365-2.488,6.022
		c-1.658,1.659-3.665,2.487-6.022,2.487c-2.356,0-4.365-0.828-6.022-2.487C898.576,181.286,897.748,179.277,897.748,176.92z"/>
	<path fill="#D8D8D8" d="M969.365,140.129c-3.318-1.571-7.05-2.553-11.194-2.946c-4.146-0.393-8.009,0-11.587,1.179
		c-3.58,1.179-6.504,3.23-8.772,6.153c-2.271,2.926-3.23,6.919-2.881,11.98c0.175,2.968,1.353,5.587,3.535,7.855
		c2.181,2.271,4.91,3.95,8.184,5.041c3.272,1.092,6.873,1.439,10.801,1.047c3.929-0.393,7.769-1.811,11.522-4.255l4.713,14.533
		c-3.23,1.833-6.808,3.229-10.736,4.189c-3.928,0.959-7.921,1.352-11.979,1.178c-4.059-0.176-8.009-0.916-11.849-2.226
		c-3.842-1.309-7.246-3.316-10.213-6.022c-2.968-2.704-5.391-6.131-7.267-10.277c-1.878-4.146-2.859-9.143-2.945-14.991
		c-0.088-4.888,0.763-9.23,2.553-13.027c1.788-3.797,4.167-7.048,7.136-9.755c2.967-2.704,6.37-4.799,10.212-6.284
		c3.84-1.483,7.791-2.356,11.85-2.618s8.072,0.131,12.045,1.178c3.971,1.048,7.571,2.75,10.802,5.106L969.365,140.129z"/>
	<path fill="#D8D8D8" d="M1025.271,185.299c0-2.792,0.043-5.912,0.131-9.361c0.086-3.447,0.065-6.939-0.065-10.475
		c-0.132-3.534-0.416-7.004-0.852-10.408c-0.438-3.404-1.158-6.459-2.16-9.165c-1.005-2.704-2.336-4.931-3.993-6.678
		c-1.659-1.744-3.754-2.749-6.285-3.011c-3.842-0.436-7.485,0.262-10.932,2.095c-3.449,1.833-6.089,4.627-7.922,8.379v38.624
		h-15.449l-0.262-92.173h15.711v32.208c2.27-1.31,4.91-2.618,7.922-3.928c3.011-1.31,6.262-2.05,9.754-2.226
		c6.546-0.086,11.914,1.397,16.104,4.451c4.19,3.057,7.463,7.463,9.82,13.224c2.356,5.761,3.883,12.745,4.582,20.948
		c0.697,8.206,0.829,17.371,0.393,27.495H1025.271z"/>
</g>
</svg>
