<?xml version="1.0" encoding="utf-8"?>
<!-- Generator: Adobe Illustrator 23.0.3, SVG Export Plug-In . SVG Version: 6.00 Build 0)  -->
<svg version="1.1" id="Layer_1" xmlns="http://www.w3.org/2000/svg" xmlns:xlink="http://www.w3.org/1999/xlink" x="0px" y="0px"
	 viewBox="0 0 50 50" style="enable-background:new 0 0 50 50;" xml:space="preserve">
<style type="text/css">
	.st0{fill:#FDC324;}
	.st1{fill:#F90B22;}
	.st2{fill:#00BD49;}
	.st3{fill:#0390BE;}
	.st4{fill:#FF0425;}
	.st5{fill:#682CC6;}
	.st6{fill:#CC33AF;}
	.st7{fill:url(#SVGID_1_);}
	.st8{fill:url(#SVGID_2_);}
	.st9{fill:url(#SVGID_3_);}
	.st10{fill:url(#SVGID_4_);}
	.st11{fill:url(#SVGID_5_);}
	.st12{fill:url(#SVGID_6_);}
	.st13{fill:url(#SVGID_7_);}
	.st14{fill:url(#SVGID_8_);}
	.st15{fill:url(#SVGID_9_);}
	.st16{fill:url(#SVGID_10_);}
	.st17{fill:url(#SVGID_11_);}
	.st18{fill:url(#SVGID_12_);}
	.st19{fill:url(#SVGID_13_);}
	.st20{fill:url(#SVGID_14_);}
	.st21{fill:#009A34;}
	.st22{fill:url(#SVGID_15_);}
	.st23{fill:url(#SVGID_16_);}
</style>
<path class="st21" d="M46.5,14.2c-0.3-0.4-0.7-0.7-1-1c-2.6-2.6-2.6-2.6-0.1-5.2c0.7-0.7,0.7-1.1,0-1.7c-1.1-1-2.2-2-3.1-3.1
	c-0.8-1-1.3-0.9-2.2,0c-6.7,6.8-13.5,13.5-20.2,20.3c-0.9,0.9-1.6,1.2-3,0.8C9.2,21.9,1.4,28,1.6,35.9C1.8,43,8.1,48.5,15,47.5
	c8.1-1.2,12.6-9.3,9.3-16.8c-0.3-0.8-0.5-1.2,0.2-1.9c2.5-2.4,5-4.9,7.4-7.4c0.6-0.6,0.9-0.5,1.4,0c1.4,1.5,2.9,3,4.4,4.4
	c0.4,0.4,0.6,0.8,1.3,0.3c3-2.3,3.1-2.6,0.5-5.2c-0.4-0.4-0.8-0.8-1.2-1.2c-2.5-2.5-2.5-2.5,0.1-5c0.7-0.7,1.1-0.6,1.7,0
	c1.4,1.5,2.8,2.9,4.3,4.3c0.3,0.3,0.6,1,1.2,0.3c0.9-1,2.2-1.8,2.7-2.9C48.7,15.8,47.1,15,46.5,14.2z M13.5,40.4
	c-2.5,0-4.7-2.2-4.7-4.6c0-2.5,2.2-4.8,4.7-4.9c2.5,0,4.8,2.2,4.8,4.8C18.3,38.3,16.1,40.4,13.5,40.4z"/>
</svg>
