<?xml version="1.0" encoding="utf-8"?>
<!-- Generator: Adobe Illustrator 23.0.3, SVG Export Plug-In . SVG Version: 6.00 Build 0)  -->
<svg version="1.1" id="Layer_1" xmlns="http://www.w3.org/2000/svg" xmlns:xlink="http://www.w3.org/1999/xlink" x="0px" y="0px"
	 viewBox="0 0 50 50" style="enable-background:new 0 0 50 50;" xml:space="preserve">
<style type="text/css">
	.st0{fill:#FDC324;}
	.st1{fill:#F90B22;}
	.st2{fill:#00BD49;}
	.st3{fill:#0390BE;}
	.st4{fill:#FF0425;}
	.st5{fill:#682CC6;}
	.st6{fill:#CC33AF;}
	.st7{fill:url(#SVGID_1_);}
	.st8{fill:url(#SVGID_2_);}
	.st9{fill:url(#SVGID_3_);}
	.st10{fill:url(#SVGID_4_);}
	.st11{fill:url(#SVGID_5_);}
	.st12{fill:url(#SVGID_6_);}
	.st13{fill:url(#SVGID_7_);}
	.st14{fill:url(#SVGID_8_);}
	.st15{fill:url(#SVGID_9_);}
	.st16{fill:url(#SVGID_10_);}
	.st17{fill:url(#SVGID_11_);}
	.st18{fill:url(#SVGID_12_);}
	.st19{fill:url(#SVGID_13_);}
	.st20{fill:url(#SVGID_14_);}
	.st21{fill:#009A34;}
	.st22{fill:url(#SVGID_15_);}
	.st23{fill:url(#SVGID_16_);}
</style>
<path class="st21" d="M48.7,7.2c0-3.8-2.1-5.9-5.9-5.9c-5.9,0-11.8,0-17.8,0c-5.9,0-11.8,0-17.8,0c-3.8,0-5.9,2.1-5.9,5.9
	c0,11.8,0,23.7,0,35.5c0,3.8,2.1,5.9,5.9,5.9c11.8,0,23.7,0,35.5,0c3.8,0,5.9-2.1,5.9-5.9C48.7,30.9,48.7,19.1,48.7,7.2z M29.8,25.8
	c-1.1,0.8-1.2,1.5-1,2.6c0.5,2.8,0.8,5.6,1.3,8.4c0.2,1.1-0.1,1.4-1.2,1.4c-1.4-0.1-2.7,0-4.1,0c-1.3,0-2.6-0.1-3.9,0
	c-1,0.1-1.3-0.3-1.1-1.3c0.4-2.8,0.8-5.6,1.3-8.4c0.2-1.2,0-2-1-2.8c-3.6-2.7-3.9-8.1-0.8-11.4c3.1-3.3,8.5-3.2,11.5,0.1
	C33.9,17.7,33.5,23.1,29.8,25.8z"/>
<g>
	<g>
	</g>
</g>
</svg>
