<svg width="58" height="10" viewBox="0 0 58 10" fill="none" xmlns="http://www.w3.org/2000/svg">
<path opacity="0.2" fill-rule="evenodd" clip-rule="evenodd" d="M5 9C7.20914 9 9 7.20914 9 5C9 2.79086 7.20914 1 5 1C2.79086 1 1 2.79086 1 5C1 7.20914 2.79086 9 5 9Z" stroke="black" stroke-width="2" stroke-linecap="square"/>
<path fill-rule="evenodd" clip-rule="evenodd" d="M29 9C31.2091 9 33 7.20914 33 5C33 2.79086 31.2091 1 29 1C26.7909 1 25 2.79086 25 5C25 7.20914 26.7909 9 29 9Z" fill="black" stroke="black" stroke-width="2" stroke-linecap="square"/>
<path opacity="0.2" fill-rule="evenodd" clip-rule="evenodd" d="M53 9C55.2091 9 57 7.20914 57 5C57 2.79086 55.2091 1 53 1C50.7909 1 49 2.79086 49 5C49 7.20914 50.7909 9 53 9Z" stroke="black" stroke-width="2" stroke-linecap="square"/>
</svg>
